/* XPM */
static char * attack1_xpm[] = {
"64 64 14 1",
" 	c None",
".	c #3A4A7B",
"+	c #F8F8F8",
"@	c #10213A",
"#	c #73CE73",
"$	c #DEE6EF",
"%	c #000001",
"&	c #4A9452",
"*	c #7B4242",
"=	c #FF635A",
"-	c #C54242",
";	c #FFC594",
">	c #FFD6B5",
",	c #DE9473",
"                                             ...                ",
"                                             ...                ",
"                                             ...                ",
"                                       ......+++...             ",
"                                       ......+++...             ",
"                                       ......+++...             ",
"                             ..........+++++++++.......         ",
"                             ..........+++++++++.......         ",
"                             ..........+++++++++.......         ",
"                             ..........+++++++++.......         ",
"                      @@@@...#############$$$$$$$$$$$$$...      ",
"                      @@@@...#############$$$$$$$$$$$$$...      ",
"                      @@@@...#############$$$$$$$$$$$$$...      ",
"                   %%%@@@@$$$######++++$$$###$$$$$$%%%%         ",
"                   %%%@@@@$$$######++++$$$###$$$$$$%%%%         ",
"                   %%%@@@@$$$######++++$$$###$$$$$$%%%%         ",
"                   %%%&&&&$$$++++++++++#########&&&%%%%         ",
"                   %%%&&&&$$$++++++++++#########&&&%%%%         ",
"                   %%%&&&&$$$++++++++++#########&&&%%%%         ",
"      **********   %%%&&&&###################&&&&&&&&&&%%%      ",
"      **********   %%%&&&&###################&&&&&&&&&&%%%      ",
"      **********   %%%&&&&###################&&&&&&&&&&%%%      ",
"   ***++++===---******;;;;>>>>>>>>>>>>>>>>&&&&&&&&&&&&&%%%      ",
"   ***++++===---******;;;;>>>>>>>>>>>>>>>>&&&&&&&&&&&&&%%%      ",
"   ***++++===---******;;;;>>>>>>>>>>>>>>>>&&&&&&&&&&&&&%%%      ",
"   ***++++===---******;;;;>>>>>>>>>>>>>>>>&&&&&&&&&&&&&%%%      ",
"***---%%%%%%%===---%%%;;;;@@@>>>>>>@@@@>>>;;;%%%,,,,,,,***      ",
"***---%%%%%%%===---%%%;;;;@@@>>>>>>@@@@>>>;;;%%%,,,,,,,***      ",
"***---%%%%%%%===---%%%;;;;@@@>>>>>>@@@@>>>;;;%%%,,,,,,,***      ",
"%%%@@@%%%%$$$@@@%%%***;;;;@@@>>>>>>@@@@;;;;;;***,,,,,,,***      ",
"%%%@@@%%%%$$$@@@%%%***;;;;@@@>>>>>>@@@@;;;;;;***,,,,,,,***      ",
"%%%@@@%%%%$$$@@@%%%***;;;;@@@>>>>>>@@@@;;;;;;***,,,,,,,***      ",
"%%%$$$.......++++++%%%,,,,;;;;;;;;;;;;;;;;,,,,,,,,,****         ",
"%%%$$$.......++++++%%%,,,,;;;;;;;;;;;;;;;;,,,,,,,,,****         ",
"%%%$$$.......++++++%%%,,,,;;;;;;;;;;;;;;;;,,,,,,,,,****         ",
"   %%%$$$$$$$$$$%%%%%%%%%%***,,,;;;;;;;,,,***%%%%%%             ",
"   %%%$$$$$$$$$$%%%%%%%%%%***,,,;;;;;;;,,,***%%%%%%             ",
"   %%%$$$$$$$$$$%%%%%%%%%%***,,,;;;;;;;,,,***%%%%%%             ",
"      %%%%%%%%%%---***%%%%%%%%%%*******%%%%%%******%%%%***      ",
"      %%%%%%%%%%---***%%%%%%%%%%*******%%%%%%******%%%%***      ",
"      %%%%%%%%%%---***%%%%%%%%%%*******%%%%%%******%%%%***      ",
"      %%%%%%%%%%---***%%%%%%%%%%*******%%%%%%******%%%%***      ",
"          ***===---%%%@@@@@@@***-------@@@@@@@@@@@@%%%%---***   ",
"          ***===---%%%@@@@@@@***-------@@@@@@@@@@@@%%%%---***   ",
"          ***===---%%%@@@@@@@***-------@@@@@@@@@@@@%%%%---***   ",
"             ***%%%%%%%%%%@@@@@@@@@@@@@@@@---***%%%-------@@@   ",
"             ***%%%%%%%%%%@@@@@@@@@@@@@@@@---***%%%-------@@@   ",
"             ***%%%%%%%%%%@@@@@@@@@@@@@@@@---***%%%-------@@@   ",
"                   %%%%%%%***@@@@@@@@@@---***%%%%%%@@@@@@@      ",
"                   %%%%%%%***@@@@@@@@@@---***%%%%%%@@@@@@@      ",
"                   %%%%%%%***@@@@@@@@@@---***%%%%%%@@@@@@@      ",
"                   %%%%%%%%%%*************%%%%%%%%%             ",
"                   %%%%%%%%%%*************%%%%%%%%%             ",
"                   %%%%%%%%%%*************%%%%%%%%%             ",
"                   %%%****%%%%%%%%%%%%%%%%%%%***%%%             ",
"                   %%%****%%%%%%%%%%%%%%%%%%%***%%%             ",
"                   %%%****%%%%%%%%%%%%%%%%%%%***%%%             ",
"                   %%%****%%%%%%%%%%%%%%%%%%%***%%%             ",
"                   %%%----###---%%%%%%%---###---%%%             ",
"                   %%%----###---%%%%%%%---###---%%%             ",
"                   %%%----###---%%%%%%%---###---%%%             ",
"                      %%%%%%%%%%       %%%%%%%%%                ",
"                      %%%%%%%%%%       %%%%%%%%%                ",
"                      %%%%%%%%%%       %%%%%%%%%                "};
