/* XPM */
static char * brendon2_xpm[] = {
"64 64 15 1",
" 	c None",
".	c #3A4A7B",
"+	c #F8F8F8",
"@	c #DEE6EF",
"#	c #000000",
"$	c #4A9452",
"%	c #73CE73",
"&	c #293A63",
"*	c #10213A",
"=	c #7B4242",
"-	c #FFC594",
";	c #DE9473",
">	c #FFD6B5",
",	c #FF635A",
"'	c #C54242",
"                                      ....                      ",
"                                      ....                      ",
"                                      ....                      ",
"                                   ...++++...                   ",
"                                   ...++++...                   ",
"                                   ...++++...                   ",
"                      .............+++++++......                ",
"                      .............+++++++......                ",
"                      .............+++++++......                ",
"                      .............+++++++......                ",
"                   ...+++++++@@@@@@@@@@@@@@@@@@@...             ",
"                   ...+++++++@@@@@@@@@@@@@@@@@@@...             ",
"                   ...+++++++@@@@@@@@@@@@@@@@@@@...             ",
"                ...+++++++++++++++++++@@@@@@@...                ",
"                ...+++++++++++++++++++@@@@@@@...                ",
"                ...+++++++++++++++++++@@@@@@@...                ",
"                ###$$$%%%%+++++++++@@@@@@@@@@@@@###             ",
"                ###$$$%%%%+++++++++@@@@@@@@@@@@@###             ",
"                ###$$$%%%%+++++++++@@@@@@@@@@@@@###             ",
"             ###&&&$$$$$$$@@@%%%%%%%%%%%%%@@@%%%###             ",
"             ###&&&$$$$$$$@@@%%%%%%%%%%%%%@@@%%%###             ",
"             ###&&&$$$$$$$@@@%%%%%%%%%%%%%@@@%%%###             ",
"             ###******$$$$@@@+++%%%%%%++++@@@***###===          ",
"             ###******$$$$@@@+++%%%%%%++++@@@***###===          ",
"             ###******$$$$@@@+++%%%%%%++++@@@***###===          ",
"             ###******$$$$@@@+++%%%%%%++++@@@***###===          ",
"          ===---;;;===$$$$%%%+++++++++++++&&&***;;;===          ",
"          ===---;;;===$$$$%%%+++++++++++++&&&***;;;===          ",
"          ===---;;;===$$$$%%%+++++++++++++&&&***;;;===          ",
"          ===------===>>>>>>>***>>>>>>****>>>===;;;===          ",
"          ===------===>>>>>>>***>>>>>>****>>>===;;;===          ",
"          ===------===>>>>>>>***>>>>>>****>>>===;;;===          ",
"             ===;;;;;;-------***------****---;;;===             ",
"             ===;;;;;;-------***------****---;;;===             ",
"             ===;;;;;;-------***------****---;;;===             ",
"                ###===;;;;;;;-------------;;;###                ",
"                ###===;;;;;;;-------------;;;###                ",
"                ###===;;;;;;;-------------;;;###                ",
"                ***#######===;;;;;;;;;====###$$$===             ",
"                ***#######===;;;;;;;;;====###$$$===             ",
"                ***#######===;;;;;;;;;====###$$$===             ",
"                ***#######===;;;;;;;;;====###$$$===             ",
"             ###***;;;#############***####,,,,,,===             ",
"             ###***;;;#############***####,,,,,,===             ",
"             ###***;;;#############***####,,,,,,===             ",
"             ###***-------===,,,,,,#######,,,'''***             ",
"             ###***-------===,,,,,,#######,,,'''***             ",
"             ###***-------===,,,,,,#######,,,'''***             ",
"             ######*******===''''''##########***                ",
"             ######*******===''''''##########***                ",
"             ######*******===''''''##########***                ",
"             ################################                   ",
"             ################################                   ",
"             ################################                   ",
"             ###===###################====###                   ",
"             ###===###################====###                   ",
"             ###===###################====###                   ",
"             ###===###################====###                   ",
"             ###'''%%%''''######'''%%%''''###                   ",
"             ###'''%%%''''######'''%%%''''###                   ",
"             ###'''%%%''''######'''%%%''''###                   ",
"                ##########      ##########                      ",
"                ##########      ##########                      ",
"                ##########      ##########                      "};
