/* XPM */
static char * character_xpm[] = {
"64 64 8 1",
" 	c None",
".	c #372B3E",
"+	c #AC98B6",
"@	c #E7E0E9",
"#	c #211924",
"$	c #3F3249",
"%	c #2F2535",
"&	c #251D2A",
"                                                                ",
"                                                                ",
"                                                                ",
"                                                                ",
"                                                                ",
"                       .............                            ",
"                       .............                            ",
"                       .............                            ",
"                    ..................                          ",
"                    ..................                          ",
"               +++  ..................                          ",
"               +++  ..................                          ",
"               +++  ..................                          ",
"             ++   ++........@@@@@...@@                          ",
"             ++   ++........@@@@@...@@                          ",
"          +++       ........@@@@@...@@                          ",
"          +++       ........@@@@@...@@                          ",
"          +++       ........@@@@@...@@                          ",
"          +++       ##################                          ",
"          +++       ##################                          ",
"          +++       ##################                          ",
"          +++       ##################                          ",
"          +++       ##################                          ",
"          +++     .......................                       ",
"          +++     .......................                       ",
"          +++     .......................                       ",
"          +++  $$$$$$$$$$$$$$$$$$$$$$$$$$$$$                    ",
"          +++  $$$$$$$$$$$$$$$$$$$$$$$$$$$$$                    ",
"          +++  .............................                    ",
"          +++  .............................                    ",
"          +++  .............................                    ",
"          +++  .............+++++++++++++++++++++++++++++++     ",
"          +++  .............+++++++++++++++++++++++++++++++     ",
"             ++...........++++++++++#####++++++++++++++++++     ",
"             ++...........++++++++++#####++++++++++++++++++     ",
"             ++...........++++++++++#####++++++++++++++++++     ",
"               ........#####+++++###########++++++++++          ",
"               ........#####+++++###########++++++++++          ",
"               .....###########..###########                    ",
"               .....###########..###########                    ",
"               .....###########..###########                    ",
"               .....###########.....#####...                    ",
"               .....###########.....#####...                    ",
"               .....###########.....#####...                    ",
"               ........#####................                    ",
"               ........#####................                    ",
"               .............................                    ",
"               .............................                    ",
"               .............................                    ",
"               .............................                    ",
"               .............................                    ",
"                  %%%%%%%%%%%%%%%%%%%%%%%                       ",
"                  %%%%%%%%%%%%%%%%%%%%%%%                       ",
"                  %%%%%%%%%%%%%%%%%%%%%%%                       ",
"                    &&&&&&&&&&&&&                               ",
"                    &&&&&&&&&&&&&                               ",
"                       &&&&&&&&                                 ",
"                       &&&&&&&&                                 ",
"                       &&&&&&&&                                 ",
"                                                                ",
"                                                                ",
"                                                                ",
"                                                                ",
"                                                                "};
