/* XPM */
static char * draco1_xpm[] = {
"64 64 16 1",
" 	c None",
".	c #D86020",
"+	c #903000",
"@	c #F8C060",
"#	c #F89040",
"$	c #101010",
"%	c #184068",
"&	c #F8F8F8",
"*	c #207890",
"=	c #28A8B8",
"-	c #D0D0D0",
";	c #C03020",
">	c #E85040",
",	c #F8A058",
"'	c #F8D068",
")	c #F8E098",
"                                                                ",
"                        .+                                      ",
"                       .@+              ...                     ",
"                      +@@+              +@@++                   ",
"                     +#@$                +##.+                  ",
"                 .+++##.$                 +...+                 ",
"              .++#####.$                   +...+                ",
"         .+++#####.#..$                    +#...+               ",
"       ++####...$$$...$                    +#++..+              ",
"       +##...$$$%%%$..$     ++++++         +#+%$..              ",
"      +##.$$$%%%%%%$..$ ++++##@@@#++++++++ +#+%%+.+             ",
"      +#.$%%%%%%%%%%$+++@.#+#@$++.##@@....$+#+%%%#$             ",
"      +#$%%%%%%%%%%++@@@++#.#$&&&+###..$$$$+#+%%%#.+            ",
"     +#.$%%****%%%+@@@@@@##.+&$=&.#..$+   +#.+%%%+.$            ",
"     +#.%%******%%$.@@+############.$    +#..+%%%%#$            ",
"    +#.%%*******%%$##############...$    +#.$%%%%%#.+           ",
"    +#.%********%%$##########........$   +.$%%%%%%+.+           ",
"   +#.%**********%%$-+..-+....++.....+   +.$%%%%%%%.$           ",
"   +#.%**********%%%&$$$&++$$$$++.....$  +.$%%%%%%%.$           ",
"  .#.%***********%%%%+.++$$+;;+$#......$+..$%%%%%%%.$    ;      ",
"  +#.%**********%%%%+.+   $+;>;$#......$+.+%%%%%%%%.$    ;;     ",
"  +#.%***=*=****%%%%+.+  $+;>>;$#.......+.+%%%%%%%%.$    ;;     ",
"  +#.%**=*=*=**%*%%%+.+  $+>>>;+#..+....$$%%%%%%%*%.$     ;     ",
" .#.%****=*=***%%*%%+.+  $+>>>++#.+......$%%%%%%*%%.+           ",
" +#.%***=*=*=*%%*%*%%..++$+>>++..$++.....+$%%%%%%*..+    ;      ",
" +#.%**===*=**%*%*%*%+..+&+++&+#.$........$%%%%%**.$     ;      ",
" +#.%**====***%%*%*%%%%%+@.+++#.$ +#......$%%%%***.$   ; ;;     ",
" +#.%*======*%%*%*%*%%%%%+@###.$  +##.....+$%%%**.+    ;;;;;    ",
"+#.%**======*%=%*%*%*%%%%%$$$$$   +###.....$%*%%*.$     ;;;;;   ",
"+#.%**=$$%%=*=***%$$$$$%%%%+...+  +###.....$%*%%.$      ;;;;;   ",
"+#.%*=$    *=*=%%      $$%%%+..+ +#####....+% *%.$       ;,;;;  ",
"+#.%*$      *=%          $%%+.+++.#####.....+  .$        ;,;,;  ",
"+#.%$       %%            $%++.########.....$  .$      ; ;,,,;; ",
"+#.%$                     $+.##########.....$  $  ++    ;;,,,;,;",
"+#.%                      +##+########......$$   +&-$  ;,,,',',;",
" +.+                     +##+@@##+.###......$.$ +@@$   ;,''';',;",
" +.+                    +###+@@##.+#........+.$++@.$+  ;,'''>',;",
" +.+                   +.##.+@###.$..........++-@...$$  ,''>>'',",
" +.+        .+++++.   +.###+###+..$...'''''..$+&+...#&$ ;''>>'';",
"  +      .++@@@@@@#.+++###.+##+..$..)))))))'.$#+#...$$  ;'>>>'; ",
"       +.#@@@@@######$####+###$$$$.)))))))))'$###..$    ;;>>';; ",
"     +.##@@@########+.###.+#+$###.+$))))))))'$#+$$$      +#>;;  ",
"    +.##@@#########+$####+#####.++.-$))))))''$..$       +##+    ",
"   +.###@####..###++.####+#+##..&-$$$))))))''+.$      ++##+     ",
"   +.######+.$$$$+.$.#####+$...$$&$)))))))'''+$    $$+.##$      ",
"  +.#######+$  ++.$++#####..$$&$,$&))))))''',+.$$$+.....$       ",
"  +.########+++...$######.+..$&$,,'))))''''',.+........$        ",
"  +.###########..$########.+,,$,,,''''''''''+..+.....$+         ",
"  +..#.#######..$##@@@####..+,,,,'''''''''',+..$...$$           ",
"  +...#.#.#.#...$#@@@@@###..+,,,','''''''',+...$$$+             ",
"   ....#.#.#....+#@@@@@###...+,',','''''',+....$                ",
"   $...........+##@@@@#####..$,,',',','',+....+$                ",
"    $..........$###@@#@####..$,,,',',',++.....+                 ",
"     $.........$#####@#####..$,,,,,,,++......+$                 ",
"      +$,,,,,,,+.#########...$,,,,$$$+......+$                  ",
"        +$$,,,,,$.########..+$$$$+ +..+....+$.++                ",
"           +$$$$$+.######..+$      +..........##$               ",
"                 +#####...$+        $$$+..#####$-$              ",
"                +.##.......$            $$$+..-&$$              ",
"                +&+.++.++..$               $$$$$$               ",
"               +&--+&-+&-+$                                     ",
"               $$$$&-$$&+$                                      ",
"                   $$  $$                                       ",
"                                                                "};
