/* XPM */
static char * draco1_xpm[] = {
"64 64 16 1",
" 	c None",
".	c #C03020",
"+	c #D86020",
"@	c #E85040",
"#	c #F8A058",
"$	c #903001",
"%	c #F8C060",
"&	c #101010",
"*	c #F8D068",
"=	c #F89040",
"-	c #184068",
";	c #207890",
">	c #28A8B8",
",	c #F8F8F8",
"'	c #D0D0D0",
")	c #F8E098",
"                                                                ",
"                                        .....                   ",
"                                ++    ...@##....                ",
"                              $$%+  ..@@######.....             ",
"                           $++%%%& ..@#******###.....           ",
"                 +$$$$$$$$$==%=&&  ..@**@@@****##..  .          ",
"               $$===========++&    .@#*@@@@@@***##..            ",
"              $=====++++++=++&     ..#**@@@@*##.*#@.. .         ",
"              $==++&&&&&&+++&    .  .@#*@.**...@.....           ",
"             $==+&&------&++&   ..   .@.@+..  ..  ....          ",
"            $==+&--------&++&   @@.   $$%%$     .   ..          ",
"           $==+&----------++$    @@@    +%%+         .          ",
"          $==+&---;;;-----&+&       @    +%+          .         ",
"         $==+---;;;;;;----&+&            +%%+         .         ",
"         $=+--;;;;;;;;;---&+$            +%%+       @           ",
"        $=+--;;;;;;;;;;---&+=&          +%%+$       @.    &     ",
"        $=+-;;;;;;;;;;;----++&         $%%=+        .@   $=&    ",
"       $=+-;;;;;;;;;;;-----++&       $+====$        @    $=&    ",
"       $=+-;;;;;;;;;;;-----&++&   $$+=====+        @     $+&    ",
"      $=+-;;;;;>;>;;;---;--$++& $$+++====+&              $++&   ",
"      $=+-;;&&&&>;-$$$$$$--&+++&+++++++++&               $++&   ",
"     $=+-;;&%%%%&&$+=%%%=$--&&++&++++++$&                $+++&  ",
"     $=+-;&%%%%%%%+=%&$$==$$-&$$$$$++$&                 $+=$+&  ",
"    $=+-;;&+%%$====%&,,,$=%%$$&====$&&                  &+$-$+& ",
"    $=+-;&=%%======+,&>,+======$&&&===$$               &=+$-$+& ",
"    $=+-;&======================+++&====$$             $=&---+& ",
"   $=+-;;>&++++++++========+++++$&&&++++==$           $=+$---+& ",
"   $=+-;>>&,&&&&'$+++++==++++&$$+++++++++++$         &=+$----+& ",
"   $+$-;>;&'&-&&,'&&++$+++++&+++++++++++++++&      &&=+$----$+& ",
"   $+$->&-&'&&=&,&$$&&$$++++++++++++++++++++&    &&==+&-----$+& ",
"  $++$&&   $$=%%&$...$&$+++++++++++++++++++++& &&++++&------$+& ",
"  $+$      $=%%==&....&=+++++$&&$++++++++++++$&+++++&-------+&  ",
"  $+$     $=%%===&.@@.&=++++$&---&==++++++++++&++&&$-------$+&  ",
"  $+$    $+=%====&@@@.&=+++&&;$$$+&===++++++++$&$$---------$+&  ",
"   $     $==%===&.@@@$=+++&$$$=====$===+++++++$+&---------+$&   ",
"        $+=%====&@@@.$=++&$++=%%===$===++++++++$+&--------++&   ",
"        $+=%===&$..$$+++&+===$%%=======++++++++$+&----;-;++&    ",
"        $+====$,$$$,$=+&===$&=$==+++==+++++++++$+&-----;;+$&    ",
"       $++====$%+$$$=+&+==$''$=$+++$==+++++++++$++&&-;;;+$&     ",
"       $++=+===$%=+++&+===&,'&=&++$&=++++++++++$+$$=&&;+$&      ",
"       $+++=+===$$&&&&===&&,&+=&+$&+++++++++++++++++==$$$$$$    ",
"       $++++=+=+=+$$&+=&&=&&$$+=&&+++*****+++++$++++++=%%%&,&   ",
"       $+++++=+=+++&==&,,&+$$$$+&$+)))))))**++$&++++$%=+++&',$  ",
"        $+++++++++$===&'&+$&&&$''&)))))))))**+$&$+++$&$+$&&&&&  ",
"        $+++++++++&===&&+&&+++&&,&)))))))))***$++&&&&'=$$$=+    ",
"        &+++++++&$+====+++++++*)&&)))))))))***&++$&'&,&&$+=&    ",
"         &=++++&+======++++++****))))))))))**$++++&'&&   &'&    ",
"         &==+++$======+$++++*##**)))))))))***$++++$&      &     ",
"          &===$=%%====++$++###****)))))))***$++++++$            ",
"           &=&=%%%%====++$#####*****)))*****$++++++&            ",
"            &&%%%%%=====+$####*#***********$+++++++&            ",
"             $%%%=%=====+++##*#*#*#*******$+++++++$&            ",
"            $==%=%======++$#####*#*#*#***$++++++++&             ",
"            &===%=%====+++&########*#*#*$++++++++$              ",
"            &+=========+++&###########$$$+++++++$&              ",
"            $+=========++&&&######$&&$  &++++++$&$$             ",
"             &+=======++&   $$&&&$       $+++$$+++=$$           ",
"             $$+====+++&                $++++++++====$&         ",
"            $====++++&$                 &++++++======&'&        ",
"           $====++++++&                  $&&$+++++++',&&        ",
"          $,$+$$+$$+++&                      $&&&&$&&&&         ",
"         $,''$,'$,'$+&                                          ",
"         &&&&,'&&,$&&                                           ",
"             &&''&&                                             "};
