/* XPM */
static char * ground_xpm[] = {
"64 64 3 1",
" 	c #70C0A0",
".	c #A0D0C0",
"+	c #40B080",
"    ...                         ....                        ....",
"    ...                         ....                        ....",
"    ...                    +    ....                   ++   ....",
"    ...                    +    ....                   ++   ....",
"         ++ ..    ++                 ++  ..   ++                ",
"                                                                ",
"                                                                ",
"  ++     ..     ++            ++     ..     ++             +    ",
"  ++     ..     ++            ++     ..     ++             +    ",
"....                   ++   ....                    +    ...    ",
"....                   ++   ....                    +    ...    ",
"....                       +....                       ++...    ",
"            ..                           ..                     ",
"            ..                           ..                     ",
"                  ...                         ....              ",
"                  ...                         ....              ",
"            ++    ...                    ++   ....              ",
"            ++    ...                    ++   ....              ",
"    +                  ++  .    ++                  +  ..   ++  ",
"    +                  ++  .    ++                  +  ..   ++  ",
"                                                                ",
"  ++            ++     ..     ++            ++      .      +    ",
"  ++            ++     ..     ++            ++      .      +    ",
"         ++   ....                   ++    ...                  ",
"         ++   ....                   ++    ...                  ",
"            ++....                       ++...                  ",
"            ++....                       ++...                  ",
"                           .                           ..       ",
"    ...                         ....                        ....",
"    ...                         ....                        ....",
"    ...                    +    ....                   ++   ....",
"    ...                    +    ....                   ++   ....",
"         ++ ..    ++                 ++  ..   ++                ",
"         ++ ..    ++                 ++  ..   ++                ",
"                                                                ",
"                                                                ",
"  ++     ..     ++            ++     ..     ++             +    ",
"....                   ++   ....                    +    ...    ",
"....                   ++   ....                    +    ...    ",
"....                       +....                       ++...    ",
"....                       +....                       ++...    ",
"            ..                           ..                     ",
"            ..                           ..                     ",
"                  ...                         ....              ",
"            ++    ...                    ++   ....              ",
"            ++    ...                    ++   ....              ",
"    +                  ++  .    ++                  +  ..   ++  ",
"    +                  ++  .    ++                  +  ..   ++  ",
"                                                                ",
"                                                                ",
"  ++            ++     ..     ++            ++      .      +    ",
"  ++            ++     ..     ++            ++      .      +    ",
"         ++   ....                   ++    ...                  ",
"            ++....                       ++...                  ",
"            ++....                       ++...                  ",
"                           .                           ..       ",
"                           .                           ..       ",
"    ...                         ....                        ....",
"    ...                         ....                        ....",
"    ...                    +    ....                   ++   ....",
"         ++ ..    ++                 ++  ..   ++                ",
"         ++ ..    ++                 ++  ..   ++                ",
"                                                                ",
"                                                                "};
