/* XPM */
static char * house2_xpm[] = {
"64 64 16 1",
" 	c #70C0A0",
".	c #A0D0C0",
"+	c #606078",
"@	c #E89070",
"#	c #D86860",
"$	c #F8B880",
"%	c #40B080",
"&	c #C84050",
"*	c #404868",
"=	c #98B0D8",
"-	c #B8C8E0",
";	c #808088",
">	c #D8E0E8",
",	c #F8F8F8",
"'	c #60A8E8",
")	c #70B8F0",
"    ...         ++++++++++++++++++++++++++++++++            ....",
"    ...       ++@@@@@@@@@@@@@@@@@@@@@@@@@@@@@@@@++          ....",
"    ...      +@#$$@@$$$$$$$$$$$$$$$$$$$$$$$$@@$$#@+    %%   ....",
"    ...     +@@#$@&&@$$$$$$$$$$$$$$$$$$$$$$@&&@$#@@+   %%   ....",
"         %%+@@@#$&&&&$$$$$$$$$$$$$$$$$$$$$$&&&&$#@@@+           ",
"           +@@@#$$&&$$$$$$$$$$$$$$$$$$$$$$$$&&$$#@@@+           ",
"          +$@@@#$$$$$$$$$$$$$$$$$$$$$$$$$$$$$$$$#@@@$+          ",
"  %%     .+$@@@#$$$$$$$$$$$$$$$$$$$$$$$$$$$$$$$$#@@@$+     %    ",
"  %%     +$@@@@#$$$$$$$$$$$$$$$$$$$$$$$$$$$$$$$$#@@@@$+    %    ",
"....     +$@@@@#$$$$$$$$$$$$$$$$$$$$$$$$$$$$$$$$#@@@@$+  ...    ",
"....     +$@@@@#$$$$$$$$$$$$$$$$$$$$$$$$$$$$$$$$#@@@@$+  ...    ",
"....    *@$@@@@#$$$$$$$$$$$$$$$$$$$$$$$$$$$$$$$$#@@@@$@*%...    ",
"        *@$@@@@#$$$$$$$$$$$$$$$$$$$$$$$$$$$$$$$$#@@@@$@*        ",
"        *@$@@@@#$$$$$$$$$$$$$$$$$$$$$$$$$$$$$$$$#@@@@$@*        ",
"        *@$@@@@#$$$$$$$$$$$$$$$$$$$$$$$$$$$$$$$$#@@@@$@*        ",
"        *@$@@@@#$$$$$$$$$$$$$$$$$$$$$$$$$$$$$$$$#@@@@$@*        ",
"        *@$@@@@#$$$$$$$$$$$$$$$$$$$$$$$$$$$$$$$$#@@@@$@*        ",
"        *@$@@@@#$$$$$$$$$$$$$$$$$$$$$$$$$$$$$$$$#@@@@$@*        ",
"    %   *@$@@@@#$$$$$$$$$$$$$$$$$$$$$$$$$$$$$$$$#@@@@$@*.   %%  ",
"    %   *@$@@@@#$$@@$$$$$$$$$$$$$$$$$$$$$$$$@@$$#@@@@$@*.   %%  ",
"        *@$@@@@#$@&&@$$$$$$$$$$$$$$$$$$$$$$@&&@$#@@@@$@*        ",
"  %%    *@$@@@@#$&&&&$$$$$$$$$$$$$$$$$$$$$$&&&&$#@@@@$@*   %    ",
"  %%    *@$@@@@#$$&&$$$$$$$$$$$$$$$$$$$$$$$$&&$$#@@@@$@*   %    ",
"        *@$@@@@#$$$$$$$$$$$$$$$$$$$$$$$$$$$$$$$$#@@@@$@*        ",
"        *@$@@@@##################################@@@@$@*        ",
"        *@$@@@#++++++++++++++++++++++++++++++++++#@@@$@*        ",
"        *@$@@#++&&&&&&&&&&&&&&&&&&&&&&&&&&&&&&&&++#@@$@*        ",
"        *@$@#+&+&&&&&&&&&&&&&&&&&&&&&&&&&&&&&&&&+&+#@$@*.       ",
"    ... *@$#+&&+&&&&&&&&&&&&&&&&&&&&&&&&&&&&&&&&+&&+#$@*    ....",
"    ... *@$+&&&+&&&&&&&&&&&&&&&&&&&&&&&&&&&&&&&&+&&&+$@*    ....",
"    ... *@$+&&&+&&&&&&&&&&&&&&&&&&&&&&&&&&&&&&&&+&&&+$@*%   ....",
"    ... *#+&&&&+&&&&&&&&&&&&&&&&&&&&&&&&&&&&&&&&+&&&&+#*%   ....",
"        *#+&&&&+&&&&&&&&&&&&&&&&&&&&&&&&&&&&&&&&+&&&&+#*        ",
"        *+&@&&&+&&&&&&&&&&&&&&&&&&&&&&&&&&&&&&&&+&&&@&+*        ",
"        *+&&@&&+&&&&&&&&&&&&&&&&&&&&&&&&&&&&&&&&+&&@&&+*        ",
"        **&&&@@+&&&&&&&&&&&&&&&&&&&&&&&&&&&&&&&&+@@&&&**        ",
"  %%    *+*&&&&+@@@@@@@@@@@@@@@@@@@@@@@@@@@@@@@@+&&&&*+*   %    ",
"....    *=+*&&&+&&&&&&&&&&&&&&&&&&&&&&&&&&&&&&&&+&&&*+=* ...    ",
"....    *-=+**&+&&&&&&&&&&&&&&&&&&&&&&&&&&&&&&&&+&**+=-* ...    ",
"....    *;>=++************************************++=>;*%...    ",
"....    *;,>>=+++++++++++;;;;;;;;;;;;;;;++++++++++=>>,;*%...    ",
"        *-;,,>>=+++++++++;;;;;;;;;;;;;;;++++++++=>>,,;-*        ",
"        *-,;;,,=========+;;;;;;;;;;;;;;;=========,,;;,-*        ",
"        *-,,,;;;--------++++++++++++++++--------;;;,,,-*        ",
"        *-,,,,,=;;;;;;;;****************;;;;;;;;=,,,,,-*        ",
"        *-,,,,,=--------*&&&&&&&&&&&&&&*--------=,,,,,-*        ",
"    %   *-,,,,,=--------*##############*--------=,,,,,-*.   %%  ",
"    %   *-,,,,,=--------*##++++++++++##*--------=,,,,,-*.   %%  ",
"        *-,,,,,=--------*##+''''''''+##*--------=,,,,,-*        ",
"        *-,,,,,=--------*##+))))))))+##*--------=,,,,,-*        ",
"  %%    *-,,,,,=--------*##+))))))))+##*--------=,,,,,-*   %    ",
"  %%    *;,,,,,=--------*##+))))))))+##*--------=,,,,,;*   %    ",
"        *;,,,,,=--------*##++++++++++##*--------=,,,,,;*        ",
"        *-;,,,,=--------*##############*--------=,,,,;-*        ",
"        *-,;;,,=--------*++&#&#&#&#&#&#*--------=,,;;,-*        ",
"        *-,,,;;*--------+,-+&#&#&#&#&#&*--------*;;,,,-*.       ",
"        *-,,,,,=********+--+&&&&&&&&&&&*********=,,,,,-*.       ",
"    ... *>,,,,,=--------*++&&&&&&&&&&&&*--------=,,,,,>*    ....",
"    ... ;*>,,,,=--------*&&&&&&&&&&&&&&*--------=,,,,>*;    ....",
"    ... ;*>>>,,=--------*&&&&&&&&&&&&&&*--------=,,>>>*;%   ....",
"         ;*>>>>=========*&&&&&&&&&&&&&&*=========>>>>*;         ",
"         %;**>>=========*&&&&&&&&&&&&&&*=========>>**;          ",
"           ;;**************************************;;           ",
"             ;;;;;;;;;;;;;;;;;;;;;;;;;;;;;;;;;;;;;;             "};
