/* XPM */
static char * house2_xpm[] = {
"64 64 132 2",
"  	c None",
". 	c #606078",
"+ 	c #E89070",
"@ 	c #D86860",
"# 	c #F8B880",
"$ 	c #C84050",
"% 	c #404868",
"& 	c #98B0D8",
"* 	c #B8C8E0",
"= 	c #808088",
"- 	c #D8E0E8",
"; 	c #F8F8F8",
"> 	c #616078",
", 	c #414868",
"' 	c #000001",
") 	c #D7675F",
"! 	c #9B5D69",
"~ 	c #B36467",
"{ 	c #C46564",
"] 	c #CE6562",
"^ 	c #D3625E",
"/ 	c #D45E5B",
"( 	c #D25858",
"_ 	c #CF5256",
": 	c #CB4B54",
"< 	c #BF424D",
"[ 	c #D6675F",
"} 	c #9C626D",
"| 	c #5B89BA",
"1 	c #5D7CA7",
"2 	c #676F90",
"3 	c #79667E",
"4 	c #8F6272",
"5 	c #A5626A",
"6 	c #B76569",
"7 	c #D56761",
"8 	c #D1635C",
"9 	c #D5665F",
"0 	c #A0616B",
"a 	c #6AAEE8",
"b 	c #67B0ED",
"c 	c #64ABE9",
"d 	c #61A4E1",
"e 	c #5E9BD4",
"f 	c #5B90C4",
"g 	c #596C8D",
"h 	c #C86665",
"i 	c #D2655D",
"j 	c #D4665E",
"k 	c #A2616A",
"l 	c #6FB3E9",
"m 	c #70B8F0",
"n 	c #6FB7F0",
"o 	c #6DB5EF",
"p 	c #6AB4F0",
"q 	c #6081AA",
"r 	c #C86664",
"s 	c #D3655D",
"t 	c #A5616A",
"u 	c #6EB0E5",
"v 	c #70B9F1",
"w 	c #71BAF2",
"x 	c #6386AC",
"y 	c #D3655C",
"z 	c #B8656A",
"A 	c #716B85",
"B 	c #6482A8",
"C 	c #6599C7",
"D 	c #6CABDE",
"E 	c #6FB5EC",
"F 	c #70BAF3",
"G 	c #6387AE",
"H 	c #C76664",
"I 	c #895E6E",
"J 	c #C35D60",
"K 	c #C76564",
"L 	c #AE6267",
"M 	c #8E6272",
"N 	c #716C87",
"O 	c #6481A7",
"P 	c #5C7698",
"Q 	c #B6C5DD",
"R 	c #D05C5C",
"S 	c #CF5357",
"T 	c #D35A59",
"U 	c #D8675F",
"V 	c #D26560",
"W 	c #AA636B",
"X 	c #CC6764",
"Y 	c #B7C7DF",
"Z 	c #B6C6DE",
"` 	c #BC4657",
" .	c #D25B5A",
"..	c #D15959",
"+.	c #CE5156",
"@.	c #D35C5A",
"#.	c #D7625D",
"$.	c #D5615D",
"%.	c #7F5167",
"&.	c #99667A",
"*.	c #C24354",
"=.	c #C84150",
"-.	c #CA4652",
";.	c #C94451",
">.	c #D25A5A",
",.	c #CF5558",
"'.	c #D05658",
").	c #CE5357",
"!.	c #CF5F5A",
"~.	c #BA3A49",
"{.	c #C64152",
"].	c #C94351",
"^.	c #CA4752",
"/.	c #D15859",
"(.	c #C64751",
"_.	c #B73A49",
":.	c #C83F50",
"<.	c #C33E4E",
"[.	c #B23846",
"}.	c #29070B",
"|.	c #832732",
"1.	c #B63948",
"2.	c #54161D",
"3.	c #992F3B",
"4.	c #BF3D4C",
"5.	c #1F0407",
"6.	c #71202A",
"7.	c #A93542",
"8.	c #C43F4E",
"9.	c #420F16",
"0.	c #892934",
"a.	c #B13746",
"                                . . . . . . . . . . . . . . . . . . . . . . . . . . . . . . . .                                 ",
"                            . . + + + + + + + + + + + + + + + + + + + + + + + + + + + + + + + + . .                             ",
"                          . + @ # # + + # # # # # # # # # # # # # # # # # # # # # # # # + + # # @ + .                           ",
"                        . + + @ # + $ $ + # # # # # # # # # # # # # # # # # # # # # # + $ $ + # @ + + .                         ",
"                      . + + + @ # $ $ $ $ # # # # # # # # # # # # # # # # # # # # # # $ $ $ $ # @ + + + .                       ",
"                      . + + + @ # # $ $ # # # # # # # # # # # # # # # # # # # # # # # # $ $ # # @ + + + .                       ",
"                    . # + + + @ # # # # # # # # # # # # # # # # # # # # # # # # # # # # # # # # @ + + + # .                     ",
"                    . # + + + @ # # # # # # # # # # # # # # # # # # # # # # # # # # # # # # # # @ + + + # .                     ",
"                  . # + + + + @ # # # # # # # # # # # # # # # # # # # # # # # # # # # # # # # # @ + + + + # .                   ",
"                  . # + + + + @ # # # # # # # # # # # # # # # # # # # # # # # # # # # # # # # # @ + + + + # .                   ",
"                  . # + + + + @ # # # # # # # # # # # # # # # # # # # # # # # # # # # # # # # # @ + + + + # .                   ",
"                % + # + + + + @ # # # # # # # # # # # # # # # # # # # # # # # # # # # # # # # # @ + + + + # + %                 ",
"                % + # + + + + @ # # # # # # # # # # # # # # # # # # # # # # # # # # # # # # # # @ + + + + # + %                 ",
"                % + # + + + + @ # # # # # # # # # # # # # # # # # # # # # # # # # # # # # # # # @ + + + + # + %                 ",
"                % + # + + + + @ # # # # # # # # # # # # # # # # # # # # # # # # # # # # # # # # @ + + + + # + %                 ",
"                % + # + + + + @ # # # # # # # # # # # # # # # # # # # # # # # # # # # # # # # # @ + + + + # + %                 ",
"                % + # + + + + @ # # # # # # # # # # # # # # # # # # # # # # # # # # # # # # # # @ + + + + # + %                 ",
"                % + # + + + + @ # # # # # # # # # # # # # # # # # # # # # # # # # # # # # # # # @ + + + + # + %                 ",
"                % + # + + + + @ # # # # # # # # # # # # # # # # # # # # # # # # # # # # # # # # @ + + + + # + %                 ",
"                % + # + + + + @ # # + + # # # # # # # # # # # # # # # # # # # # # # # # + + # # @ + + + + # + %                 ",
"                % + # + + + + @ # + $ $ + # # # # # # # # # # # # # # # # # # # # # # + $ $ + # @ + + + + # + %                 ",
"                % + # + + + + @ # $ $ $ $ # # # # # # # # # # # # # # # # # # # # # # $ $ $ $ # @ + + + + # + %                 ",
"                % + # + + + + @ # # $ $ # # # # # # # # # # # # # # # # # # # # # # # # $ $ # # @ + + + + # + %                 ",
"                % + # + + + + @ # # # # # # # # # # # # # # # # # # # # # # # # # # # # # # # # @ + + + + # + %                 ",
"                % + # + + + + @ @ @ @ @ @ @ @ @ @ @ @ @ @ @ @ @ @ @ @ @ @ @ @ @ @ @ @ @ @ @ @ @ @ + + + + # + %                 ",
"                % + # + + + @ . . . . . . . . . . . . . . . . . . . . . . . . . . . . . . . . . . @ + + + # + %                 ",
"                % + # + + @ . . $ $ $ $ $ $ $ $ $ $ $ $ $ $ $ $ $ $ $ $ $ $ $ $ $ $ $ $ $ $ $ $ . . @ + + # + %                 ",
"                % + # + @ . $ . $ $ $ $ $ $ $ $ $ $ $ $ $ $ $ $ $ $ $ $ $ $ $ $ $ $ $ $ $ $ $ $ . $ . @ + # + %                 ",
"                % + # @ . $ $ . $ $ $ $ $ $ $ $ $ $ $ $ $ $ $ $ $ $ $ $ $ $ $ $ $ $ $ $ $ $ $ $ . $ $ . @ # + %                 ",
"                % + # . $ $ $ . $ $ $ $ $ $ $ $ $ $ $ $ $ $ $ $ $ $ $ $ $ $ $ $ $ $ $ $ $ $ $ $ . $ $ $ . # + %                 ",
"                % + # . $ $ $ . $ $ $ $ $ $ $ $ $ $ $ $ $ $ $ $ $ $ $ $ $ $ $ $ $ $ $ $ $ $ $ $ . $ $ $ . # + %                 ",
"                % @ . $ $ $ $ . $ $ $ $ $ $ $ $ $ $ $ $ $ $ $ $ $ $ $ $ $ $ $ $ $ $ $ $ $ $ $ $ . $ $ $ $ . @ %                 ",
"                % @ . $ $ $ $ . $ $ $ $ $ $ $ $ $ $ $ $ $ $ $ $ $ $ $ $ $ $ $ $ $ $ $ $ $ $ $ $ . $ $ $ $ . @ %                 ",
"                % . $ + $ $ $ . $ $ $ $ $ $ $ $ $ $ $ $ $ $ $ $ $ $ $ $ $ $ $ $ $ $ $ $ $ $ $ $ . $ $ $ + $ . %                 ",
"                % . $ $ + $ $ . $ $ $ $ $ $ $ $ $ $ $ $ $ $ $ $ $ $ $ $ $ $ $ $ $ $ $ $ $ $ $ $ . $ $ + $ $ . %                 ",
"                % % $ $ $ + + . $ $ $ $ $ $ $ $ $ $ $ $ $ $ $ $ $ $ $ $ $ $ $ $ $ $ $ $ $ $ $ $ . + + $ $ $ % %                 ",
"                % . % $ $ $ $ . + + + + + + + + + + + + + + + + + + + + + + + + + + + + + + + + . $ $ $ $ % . %                 ",
"                % & . % $ $ $ . $ $ $ $ $ $ $ $ $ $ $ $ $ $ $ $ $ $ $ $ $ $ $ $ $ $ $ $ $ $ $ $ . $ $ $ % . & %                 ",
"                % * & . % % $ . $ $ $ $ $ $ $ $ $ $ $ $ $ $ $ $ $ $ $ $ $ $ $ $ $ $ $ $ $ $ $ $ . $ % % . & * %                 ",
"                % = - & . . % % % % % % % % % % % % % % % % % % % % % % % % % % % % % % % % % % % % . . & - = %                 ",
"                % = ; - - & . . . . . . . . . . . = = = = = = = = = = = = = = = . . . . . . . . . . & - - ; = %                 ",
"                % * = ; ; - - & . . . . . . . . . = = = = = = = = = = = = = = = . . . . . . . . & - - ; ; = * %                 ",
"                % * ; = = ; ; & & & & & & & & & . = = = = = = = = = = = = = = = & & & & & & & & & ; ; = = ; * %                 ",
"                % * ; ; ; = = = * * * * * * * * . . . . . . . . . > . . . . . . * * * * * * * * = = = ; ; ; * %                 ",
"                % * ; ; ; ; ; & = = = = = = = = % % % % % % % % % % % % % % , % = = = = = = = = & ; ; ; ; ; * %                 ",
"                % * ; ; ; ; ; & * * * * * * * * % ' ' ' ) ! ~ { ] ^ / ( _ : < % * * * * * * * * & ; ; ; ; ; * %                 ",
"                % * ; ; ; ; ; & * * * * * * * * % ' ' ' [ } | 1 2 3 4 5 6 7 8 % * * * * * * * * & ; ; ; ; ; * %                 ",
"                % * ; ; ; ; ; & * * * * * * * * % ' ' ' 9 0 a b c d e f g h i % * * * * * * * * & ; ; ; ; ; * %                 ",
"                % * ; ; ; ; ; & * * * * * * * * % ' ' ' j k l m m n o p q r i % * * * * * * * * & ; ; ; ; ; * %                 ",
"                % * ; ; ; ; ; & * * * * * * * * % ' ' ' s t u v v m m w x r i % * * * * * * * * & ; ; ; ; ; * %                 ",
"                % * ; ; ; ; ; & * * * * * * * * % ' ' ' y z A B C D E F G H i % * * * * * * * * & ; ; ; ; ; * %                 ",
"                % = ; ; ; ; ; & * * * * * * * * % ' ' ' I J 7 K L M N O P H i % * * * * * * * * & ; ; ; ; ; = %                 ",
"                % = ; ; ; ; ; & * * * * * * * * % ' ' ' ; Q R S T U V { W X i % * * * * * * * * & ; ; ; ; ; = %                 ",
"                % * = ; ; ; ; & * * * * * * * * % ' ' ' Y Z `  .....+.@.#.$.i % * * * * * * * * & ; ; ; ; = * %                 ",
"                % * ; = = ; ; & * * * * * * * * % ' ' ' %.&.*.=.-.;.>.,.'.).!.% * * * * * * * * & ; ; = = ; * %                 ",
"                % * ; ; ; = = % * * * * * * * * . ' ' ' ~.{.$ $ $ $ $ ].^./.(.% * * * * * * * * % = = ; ; ; * %                 ",
"                % * ; ; ; ; ; & % % % % % % % % . ' ' ' _.$ $ $ $ $ $ $ $ :.<.% % % % % % % % % & ; ; ; ; ; * %                 ",
"                % - ; ; ; ; ; & * * * * * * * * % ' ' ' [.$ $ $ $ $ $ $ $ $ <.% * * * * * * * * & ; ; ; ; ; - %                 ",
"                = % - ; ; ; ; & * * * * * * * * % ' ' ' }.|.1.$ $ $ $ $ $ $ <.% * * * * * * * * & ; ; ; ; - % =                 ",
"                = % - - - ; ; & * * * * * * * * % ' ' ' ' ' ' 2.3.4.$ $ $ $ <.% * * * * * * * * & ; ; - - - % =                 ",
"                  = % - - - - & & & & & & & & & % ' ' ' ' ' ' ' ' 5.6.7.8.$ <.% & & & & & & & & & - - - - % =                   ",
"                    = % % - - & & & & & & & & & % ' ' ' ' ' ' ' ' ' ' ' 9.0.a.% & & & & & & & & & - - % % =                     ",
"                      = = % % % % % % % % % % % % % % % % % % % % % % % % % % % % % % % % % % % % % % = =                       ",
"                          = = = = = = = = = = = = = = = = = = = = = = = = = = = = = = = = = = = = = =                           "};
