/* XPM */
static char * hud_xpm[] = {
"238 64 45 1",
" 	c #000000",
".	c #FFFFFF",
"+	c #405887",
"@	c #2F3249",
"#	c #5880B8",
"$	c #FEFEFE",
"%	c #283664",
"&	c #4A6390",
"*	c #BDBDBD",
"=	c #98A0C8",
"-	c #C38A6A",
";	c #E8E8E8",
">	c #F8D7C8",
",	c #E6B08F",
"'	c #C8D0D7",
")	c #6D4C46",
"!	c #C44647",
"~	c #644337",
"{	c #A6A6A5",
"]	c #D8E0E8",
"^	c #FDFDFD",
"/	c #F46057",
"(	c #D26A14",
"_	c #F8A450",
":	c #A66750",
"<	c #FFFFFE",
"[	c #484860",
"}	c #FFFEFE",
"|	c #FFFEFD",
"1	c #FFFEFB",
"2	c #B04000",
"3	c #E2E2E2",
"4	c #999999",
"5	c #C05000",
"6	c #B0B8C8",
"7	c #858585",
"8	c #B2B2B2",
"9	c #B9B9B9",
"0	c #D1D1D1",
"a	c #959595",
"b	c #C4C4C4",
"c	c #FCFCFC",
"d	c #FFFEFC",
"e	c #FFFDFB",
"f	c #FAFAFB",
"                                                                                                                                                                                                                                              ",
"                                                                                                                                                                                                                                              ",
"                                                                                                                                                                                                                                              ",
"                                                                                                                                                                                                                                              ",
"    ......................................................................................................................................................................................................................................    ",
"    ...........................................+..........................................................................................................................................................................................    ",
"    ..........................................@#@.............................................$..............................$............................................................................................................    ",
"    .........................................@#@...@@@@@@@............................................     ..............................................................................................................%&&%.............    ",
"    ........................................@#@@.@@#######@@@@........................................ .... ...........................................................................................................%&&&&&& ...........    ",
"    ........................................@#+++######+++++++@@...................................... .... ...   ....  .............................................................................................&&&&&&&%&& ..........    ",
"    .......................................@#+#####+++++++++++++@..................................... .... .. ... .. .. ... ........................................................................................% &&&%%&&&&%.........    ",
"    .......................................@+####++++++++++++@ @......................................     ....... .. ......*.......................................................................................%&%  %&=  =& .........    ",
"    ......................................@@+@@@+++++++++@   ......................................... ........    ...  ............................................................................................%&&%-%&&= &&& ........    ",
"    ...................................@@@######@++++++++++###@....................................... ....... ... ..... ...;......................................................................................%&&%>>>%%&% &% ........    ",
"    .................................@@+@####++@+   @@@@@@@     ...................................... ....... ..  .. .. ... ......................................................................................%&%%>>>,,%&% % ........    ",
"    ................................@++++#######  .................................................... ........  . ...  ............................................................................................%%&->>,-&%%% .........    ",
"    ...............................++,>>>+@#'#'+@+# ................................................................................................................................................................)-,$ >>,&,-)-)........    ",
"    ..............................@#,>>>>+,@@###+@ .................................................................................................................................................................)),>->>>,,-)-)........    ",
"    ..............................@+>>>>>>+,, @##+@..................................................................................................................................................................))>>>,>,-) ).........    ",
"    ...............@@@@............@,+>>>>>,,, @+++....................................................................................................................................................................->>!-,)%%% %.......    ",
"    .............++##++@...........@,$+>>>-+ ,@  ++@..................................................................................................................................................................  )-,,- %%%&&%......    ",
"    .............~>->,++@--.......~@,$ >>-+$,- ,~ @@................................................................................................................................................------.--,>,....&&&&=&))&{{   ........    ",
"    .............->~,,@@@@>,-.....~->>>>>, $,-~-~..................................................................................................................................................->->>,,->>>>>)))]]]]&]]%))&&...........    ",
"    .............,-~-@>,@@>>>,-....~>>>,>>,,,~--~.........................................................................................^........................................................))-))-,,)>>,,----]]=&]=--=]=&..........    ",
"    .............~~~~~>,~@>>>>>-~~..~>-!~>,,-  ~....................................................................................................................................................-)//))-))))-,---===$===-=&==&.........    ",
"    ..................  @~->>>>,-,,  ->!!~,- .......................................................................................................................................................))]@->))....))))&&]$$$&=$===&.........    ",
"    .......................  -,---,,@ ~!!~  .........................................................................................................................................................&]]&&...........&]]$$$$$]===&........    ",
"    ..........................  ~---+(--  ............................................................................................................................................................&&&.............&==]]]]&===&........    ",
"    ............................. ---+(- .............................................................................................................................................................................&======&===&........    ",
"    .............................. --#__( ............................................................................................................................................................................&&====={&===&.......    ",
"    ...............................~-#__(_............................................................................................................................................................................&]]]]=&{&===).......    ",
"    ...............................~+((((_ ...........................................................................................................................................................................&]]]]] {{)--).......    ",
"    ...............................:(((((( ..............................................................<..<[[[[[[.}|...............................................................................................&]]]]]] {{)--).......    ",
"    ...............................:((((( ......~  ........................................................[[[[[[[[[[<|1............................................................................................!/=]=]]]]))----)......    ",
"    ...............................:((((:......~~~>.......................................................[[[222222[[[<............................................................................................!/!/!===]]------)......    ",
"    ..............................->,-:( ......~,>~@....................................................1[[2222222222[[<...........................................................................................>/!/)//!!! ---)........    ",
"    ..................----~.......->,-- - ....~>~>,@...................................................|[[222222222222[}..........................................................................................)/)>>)//)/! ))..........    ",
"    ...............--->>>>,~  ...+>>>,- --~  @+,>~+....................................................[[22222222222222[..........................................................................................!!)//)>>)>,)............    ",
"    .............-,,,>>>>>>,--  @(#>>, ~-----@@++@@...................................................<[[22222222222222[<..........................................................................................)!!!)//)//! ...........    ",
"    ...........--,,>>>>>>>>,--+((((#+, { ----    .....................................................[[222222[[[[22222[[...34.....................................................................................)>$,!)!))!) ...........    ",
"    ..........~  ,>>>>>>>,,----+((((:++~~    ----  ...................................................[[55555[[66[[2222[[...78^....................................................................................->$>,).-,>>)...........    ",
"    .........  '' ,,,-    -----+(((((:((((+--~~~--,...................................................[[[[[[[[6666[[[[[[[..........................................................................................,>$>,).->>>)...........    ",
"    ........ ''++'   ..... ----+(((((:(((((~~>>>>,, ..................................................[[[[[[[[6666[[[[[[[..........................................................................................,>>>,...>>>-...........    ",
"    ....... '@@+++ ........  -+((((((:(((((~>>>>,,, ..................................................[[66666[[66[[6666[[...90.....................................................................................,>>>,...->>>)..........    ",
"    ....... +++@@+ ..........   (((((   (~~->>,,--,...................................................[[666666[[[[66666[[...ab$....................................................................................->>,-...->>>)..........    ",
"    ...... @@@+++@ .............   ( +@' ,,,,,,,,~ ....................................................[[66666666666666[....$$c....................................................................................->>--....->,-..........    ",
"    ...... +++@@  .................@+@+@' ,,,,, ~......................................................[[66666666666666[|..........................................................................................,>,-)....-,-, .........    ",
"    ....... ++  ................... +@+@' ,,~  .........................................................[[666666666666[d...........................................................................................@,-,).....--&@ ........    ",
"    ................................ ++@' ................................................................[[[666666[[[<...........................................................................................@&&&@ .....@@@@@ .......    ",
"    ................................. @' .............................................................d....[[[[[[[[[[..e..........................................................................................@&&@& .....@@@@@ .......    ",
"    ..................................  .....................................................................[[[[[[.....1..........................................................................................@&@@ ......@@@@ .......    ",
"    ...............................................................................................................................................................................................................@&@ ....... @@@........    ",
"    ................................................................................................................................................................................................................@@ ....... @@ ........    ",
"    .............................................................................................$..................................................................................................................@@ .......)!! ........    ",
"    ...............................................................................................................................................................................................................)!! ......)/))! .......    ",
"    ..............................................................................................................................................................................................................)/>/! .....)!//! .......    ",
"    ..............................................................................................................................................................................................................)!))! .....))!!) .......    ",
"    ..............................................................................................................................................................................................................)!!!) ......)   ........    ",
"    ...........................^^$..$..$$^cc^cf....................................................................................................................................................................)   ...................    ",
"    ................................$...............................................................^.....................................................................................................................................    ",
"                                                                                                                                                                                                                                              ",
"                                                                                                                                                                                                                                              ",
"                                                                                                                                                                                                                                              ",
"                                                                                                                                                                                                                                              "};
