/* XPM */
static char * miaous1_xpm[] = {
"64 64 15 1",
" 	c None",
".	c #E0B040",
"+	c #986800",
"@	c #F8F8B0",
"#	c #101010",
"$	c #C8A000",
"%	c #F8F890",
"&	c #D05838",
"*	c #F87050",
"=	c #F8D000",
"-	c #F8E080",
";	c #904000",
">	c #E89830",
",	c #C87810",
"'	c #F8F8F8",
"                                                                ",
"                                                                ",
"                                                                ",
"                                                                ",
"                                                                ",
"                                                                ",
"                                                                ",
"                                                                ",
"                                                                ",
"                                                                ",
"                                                                ",
"                                                                ",
"                                                                ",
"                       ..         .+                            ",
"                       .@        .@#                            ",
"                   ### .@+       .@#                            ",
"                  ######@+  $$   .@#  ####                      ",
"                  ######@+ $%%$  .@########                     ",
"                  ##&&##.@$$$$$$+@.########                     ",
"                  ##**&&+@+%%%=++@+##&&&###                     ",
"                   #***&+@+$$$$+.-##&**&&##                     ",
"                   #&**..@+%%==+--#.&**&&##                     ",
"                   ##&.@@@.$$$$.-----&*&## ++                   ",
"             .@++   #.@@@@@+==+@@-----&&##+@@#                  ",
"             #+@@++ +@@@@@@@..@@@@----.++@@+#                   ",
"               #+@-+.@@@@@@@@@@@@@------@+#                     ",
"                 #+-@@@@@@@@@@@@@@-----+#  ;;;#                 ",
"                   .-.+#-@@@@@@@@-#+.-.-# ;>,,,#                ",
"                   ++--.+.@@@@@@.+.-----#;>>>>,,;               ",
"                  .@.+----.@@@-.--------##>>>>,,#               ",
"                 +@@.-#---------------.-##>>>>,,#               ",
"                .@@--.#+-----------+---+ #>>>,;,#               ",
"              ++.--.-+--++++..+++++.----++#,,,#,#               ",
"             .@@+---# .-+'+-----+'+--###--+###,,#               ",
"             ### ++#.# ++.-------.-++   ##--+,,;                ",
"                  #..+   +++.----++##     ##;,,#                ",
"                  +...#+++..+........##    ;>>,#                ",
"                   +......@@@.........-#   ;>>#                 ",
"                    #+.....@@@@@.....---# +--,#                 ",
"                      ++##+@@@@.@@++----#+-..+                  ",
"                          +@@@.@@@--+--++...+                   ",
"                          +@@@+@.@.-++#...+#                    ",
"                          +-@@+@+-+.#.#.+#                      ",
"                           .---+++##-#++                        ",
"                           +.------..#                          ",
"                            +.++.....+#                         ",
"                        ;;++...####+..#                         ",
"                      ;;>>--...#   #.--##                       ",
"                     ;>>>>>-.+#    #--,,,#                      ",
"                     #,,;,,;#       #>,>,,#                     ",
"                      #####         #,;,;,#                     ",
"                                     #####                      ",
"                                                                ",
"                                                                ",
"                                                                ",
"                                                                ",
"                                                                ",
"                                                                ",
"                                                                ",
"                                                                ",
"                                                                ",
"                                                                ",
"                                                                ",
"                                                                "};
