/* XPM */
static char * miaous_xpm[] = {
"64 64 17 1",
" 	c None",
".	c #E0B040",
"+	c #986800",
"@	c #F8F8B0",
"#	c #101010",
"$	c #C8A000",
"%	c #F8F890",
"&	c #D05838",
"*	c #F87050",
"=	c #F8D000",
"-	c #F8E080",
";	c #A5EBFF",
">	c #E0E0E0",
",	c #F8F8F8",
"'	c #904000",
")	c #E89830",
"!	c #C87810",
"                                                                ",
"                                                                ",
"                                                                ",
"                                                                ",
"                                                                ",
"                                                                ",
"                                                                ",
"                                                                ",
"                                                                ",
"                                                                ",
"                                                                ",
"                                                                ",
"                       ..         .+                            ",
"                       .@        .@#                            ",
"                   ### .@+       .@#                            ",
"                  ######@+  $$   .@#  ####                      ",
"                  ######@+ $%%$  .@########                     ",
"                  ##&&##.@$$$$$$+@.########                     ",
"                  ##**&&+@+%%%=++@+##&&&###                     ",
"                   #***&+@+$$$$+.-##&**&&##                     ",
"                   #&**..@+%%==+--#.&**&&##                     ",
"                   ##&.@@@.$$$$.-----&*&##;++                   ",
"             .@++   #.@@@@@+==+@@-----&&##+@@#                  ",
"             #+@@++ +@@++@@@..@@-++---.++@@+#                   ",
"               #+@-+.@+>>.@@@@@@+>>+----@+#                     ",
"                 #+-@.>,+>.@@@@+,+,>+--+#                       ",
"                   .@.,,#,+@@@@+,#,,+-.-#                       ",
"                   +-.,,#,+@@@@.,#,,.---#     '''#              ",
"                   +--.,+,.@@@-.,+,.----#    ')!!!#             ",
"                  ++.--...------...---.-#   '))))!!'            ",
"                ++...--+-----------+---+    #))))!!#            ",
"              +.@@+##.--++++..+++++.----++  #))))!!#            ",
"             .@@##    .-+,+-----+,+--###--++#)))!'!#            ",
"             ###   ++  ++.-------.-++   ##-.+#!!!#!#            ",
"                  .@.+   +++.----++#      ##  ###!!#            ",
"                 +@@.-#   +.+.......##         '!!'             ",
"                .@@@.-#  +..@.......--#       '))!#             ",
"                .@.@-+.++..+@@.@@++----#     '))!#              ",
"                +@@.#.....#@@.@@@--+---#   ++-.!#               ",
"                 ++# #+..#+@@+@.@.-+--+# ##--..#                ",
"                       ## +@@+@+-+.#++#++....+#                 ",
"                          +-@@+++##--.#....+#                   ",
"                           .---------#...##                     ",
"                           +.------..#+##                       ",
"                            +.++.....+#                         ",
"                          ++...####+..#                         ",
"                       '''--...#   #.--#                        ",
"                      '))))-.+#    #--!!#                       ",
"                     '!!')!!#       #))))#                      ",
"                     #'!'!'#        #)!)!!#                     ",
"                      ####          #!'!'!#                     ",
"                                     #####                      ",
"                                                                ",
"                                                                ",
"                                                                ",
"                                                                ",
"                                                                ",
"                                                                ",
"                                                                ",
"                                                                ",
"                                                                ",
"                                                                ",
"                                                                ",
"                                                                "};
