/* XPM */
static char * nos_xpm[] = {
"64 64 13 1",
" 	c None",
".	c #504880",
"+	c #101010",
"@	c #A8A0E8",
"#	c #7870B8",
"$	c #702058",
"%	c #B05098",
"&	c #D070B8",
"*	c #F080D8",
"=	c #C8C0F8",
"-	c #606060",
";	c #D0D0D0",
">	c #F8F8F8",
"                                                                ",
"                                                                ",
"                                                                ",
"                                                                ",
"                                                                ",
"                                                                ",
"                                                                ",
"                   .                                            ",
"                  .+                             ...+++         ",
"                 .@+                          ..@##$$$          ",
"                .@@+                       .+.@#.%%%%           ",
"               .@@#+                     .#@@...%%%%            ",
"               #@@#+                   .#@@..%%%&&%             ",
"              .@@@#+                 .#@@..%%%&&&%              ",
"              #@@@#.                .@@..%%%&&&*$               ",
"             .@@@@##.              .=@.%%%&&&***%               ",
"             #@@@@@#+             .==.%%%&&&***$                ",
"            .@@@@@@@#.            .=#.%%&&&****%                ",
"            .@@@==...#.+           +#.%%&&&***%                 ",
"            #@==#.####+             .#...&&***$                 ",
"           .@@@######+              +#####..&*$                 ",
"           .@@#######+              +##...##.*$                 ",
"           ..@@@#####+              +#.%%%%.##$                 ",
"             ..@@@###.              +#.%%&&&&.#                 ",
"               ..@@###+             +#.%&&&&$+.                 ",
"                 .@###.             .#.%&&$+                    ",
"                  .@###+           .#.%&&+                      ",
"                   .###.         ...#.%&+                       ",
"                    .###+      .#@@+.%%+                        ",
"          ##.        +###+   .#@@$%+%%$                         ",
"          #@@.+       +###++.@@$%&&+%%+                         ",
"          $$$@@.+      +###.@#$$**.%%$                          ",
"          $&%$@##+ #..+++#+@#$%&$*+%%+                          ",
"           $&$$##..===@@#+@##$%&$.%%$                           ",
"           $*$&$#@===@@@@@##$%%%&+%%+                           ",
"            $*$%.===@@@@@###$%%%+#%%+                           ",
"             $&.@=@@@@@@#####..++###.+                          ",
"              $.@@@@@@@@########.#####+                         ",
"               .......@@@##########@@##                         ",
"               -;++++;...@########@@@@#.                        ",
"               ->++++>+++.########@@@@#+                        ",
"                ++++++++++.##+####@@@@#+                        ",
"                  ++++++++.#..#####@@##+                        ",
"                  ++---++++++#########+                         ",
"                 -+---+>+.+  +#######+#                         ",
"                 -;+--+;@+    +.#.+++##.                        ",
"                  -++++++       .#+  .#+                        ",
"                                .#+  .#+                        ",
"                                #+    #+                        ",
"                               .#.    #+                        ",
"                               #.     #+                        ",
"                               #+     #+                        ",
"                              #.      #.                        ",
"                              #+     #.                         ",
"                             #+      #+                         ",
"                             +       #+                         ",
"                                     .                          ",
"                                     +                          ",
"                                                                ",
"                                                                ",
"                                                                ",
"                                                                ",
"                                                                ",
"                                                                "};
