/* XPM */
static char * nos1_xpm[] = {
"64 64 14 1",
" 	c None",
".	c #702058",
"+	c #D070B8",
"@	c #B8C8F8",
"#	c #606060",
"$	c #D0D0D0",
"%	c #F8F8F8",
"&	c #F080D8",
"*	c #B05098",
"=	c #101010",
"-	c #88B0E8",
";	c #484078",
">	c #6888B8",
",	c #000000",
"                                                                ",
"                                                                ",
"                                                                ",
"                                                                ",
"                                                                ",
"                                                                ",
"                                                                ",
"                                                                ",
"                                                                ",
"                                                                ",
"                                                                ",
"                                   >>>>>>;;;;>                  ",
"                               >>>>------>>>>>;;;>              ",
"                              >@@@--->;;;;;;;>>>>>>>            ",
"                  >;;;;>      >@@-;;***********;;;;;;>          ",
"              >>>>------;;>    ;>;**************..              ",
"             >@@@--------;     ;>;***********..                 ",
"             ;@@-------->      ;>>******++++.                   ",
"              ;---------;       ;>;*****+++.                    ",
"               ;--------;       ;>;****++++.                    ",
"               ;------>-;       ;>>;;**++++*                    ",
"                ;---->->-       ;>>>>>;;+++*                    ",
"                 ;---->->;      ;>...;>>>;;+.                   ",
"                  ;-->->->;    ;>;****..;>>>;.                  ",
"           >>     ;>>>;;;;     ;>;*******...;>>                 ",
"           ;@>>    ;>>>>>;    ;;;;***********...                ",
"           ;.@-;   ;>>>>;   ;;@@--;******==.                    ",
"           ;*.->=   ;>>>;  ;@@@>>>=****==                       ",
"           *+..>>=  ;>>>> ;@@>==.>=+*+=                         ",
"            ..+;>>;====>>=--==+++>=*+.                          ",
"            .&.+;;-@@@-;=--=.++++>=+.                           ",
"             .+;-@@@@@@---=**.++>;**.                           ",
"              .---------->.***.+>=*.                            ",
"              @;;;;;>--->>>>**.>=*.                             ",
"              #$====$;;>>>>>>*>=**.                             ",
"              #%====%===>>>>>;=.*.                              ",
"               ==========>>>>>;>..                              ",
"                 ========>>>>>>>>;                              ",
"                 ==###===;>>>>>>>;                              ",
"                #%###=%==;>>>>>>>>;                             ",
"               ;#$=##=$$=>>>>>>>>>=                             ",
"               =>;======>>>>;>>>>>=;                            ",
"                =>----->>>;;>>>>>>;>;;                          ",
"                 ;=>>>>>=;>>>>>>>=>>>>;;                        ",
"                   ;====>>>>>>>>;  ==>>>;;                      ",
"                        ;=>>>>;==    ==>>>;;                    ",
"                          ;===;;;      ;==--;;                  ",
"                              =;;;        ==-->>                ",
"                                =;;         ==-->               ",
"                                 =;=          ==;               ",
"                                  ==                            ",
"                                                                ",
"                                                                ",
"                                                                ",
"                                                                ",
"                                                                ",
"                                                                ",
"                                                                ",
"                                                                ",
"                                                                ",
"                                                                ",
"                                                                ",
"                                                                ",
"                                                                "};
