/* XPM */
static char * pokeball_xpm[] = {
"64 64 257 2",
"  	c None",
". 	c #CCFFFF",
"+ 	c #303030",
"@ 	c #F89038",
"# 	c #D85838",
"$ 	c #F8D038",
"% 	c #F8F8F8",
"& 	c #984838",
"* 	c #485050",
"= 	c #A0A0C0",
"- 	c #787880",
"; 	c #D8C8F0",
"> 	c #000000",
", 	c #000000",
"' 	c #000000",
") 	c #000000",
"! 	c #000000",
"~ 	c #000000",
"{ 	c #000000",
"] 	c #000000",
"^ 	c #000000",
"/ 	c #000000",
"( 	c #000000",
"_ 	c #000000",
": 	c #000000",
"< 	c #000000",
"[ 	c #000000",
"} 	c #000000",
"| 	c #000000",
"1 	c #000000",
"2 	c #000000",
"3 	c #000000",
"4 	c #000000",
"5 	c #000000",
"6 	c #000000",
"7 	c #000000",
"8 	c #000000",
"9 	c #000000",
"0 	c #000000",
"a 	c #000000",
"b 	c #000000",
"c 	c #000000",
"d 	c #000000",
"e 	c #000000",
"f 	c #000000",
"g 	c #000000",
"h 	c #000000",
"i 	c #000000",
"j 	c #000000",
"k 	c #000000",
"l 	c #000000",
"m 	c #000000",
"n 	c #000000",
"o 	c #000000",
"p 	c #000000",
"q 	c #000000",
"r 	c #000000",
"s 	c #000000",
"t 	c #000000",
"u 	c #000000",
"v 	c #000000",
"w 	c #000000",
"x 	c #000000",
"y 	c #000000",
"z 	c #000000",
"A 	c #000000",
"B 	c #000000",
"C 	c #000000",
"D 	c #000000",
"E 	c #000000",
"F 	c #000000",
"G 	c #000000",
"H 	c #000000",
"I 	c #D0F000",
"J 	c #90B0F0",
"K 	c #303030",
"L 	c #FFFFFF",
"M 	c #FFFFFF",
"N 	c #CCFFFF",
"O 	c #FFCCFF",
"P 	c #FFFFCC",
"Q 	c #CCFFFF",
"R 	c #FFCCFF",
"S 	c #FFFFCC",
"T 	c #FFFFFF",
"U 	c #D83030",
"V 	c #90B0F8",
"W 	c #F8D0D8",
"X 	c #D8F8D0",
"Y 	c #D0D8F8",
"Z 	c #303030",
"` 	c #303030",
" .	c #D0D830",
"..	c #F8D0D8",
"+.	c #D8F8D0",
"@.	c #B0D0F8",
"#.	c #F0B0D0",
"$.	c #D0F8D0",
"%.	c #90B0F0",
"&.	c #303030",
"*.	c #FFFFFF",
"=.	c #FFFFFF",
"-.	c #CCFFFF",
";.	c #FFCCFF",
">.	c #FFFFCC",
",.	c #CCFFFF",
"'.	c #FFCCFF",
").	c #FFFFCC",
"!.	c #FFFFFF",
"~.	c #D83030",
"{.	c #90B0F8",
"].	c #F8D0D8",
"^.	c #D8F8D0",
"/.	c #D0D8F8",
"(.	c #F8D0D8",
"_.	c #D8F8D0",
":.	c #D0D8F8",
"<.	c #F8D0D8",
"[.	c #D0F8D0",
"}.	c #B0D0F0",
"|.	c #F0B0D0",
"1.	c #D8A060",
"2.	c #B0D0F8",
"3.	c #303030",
"4.	c #FF3030",
"5.	c #FFFFFF",
"6.	c #CCFFFF",
"7.	c #FFCCFF",
"8.	c #FFFFCC",
"9.	c #CCFFFF",
"0.	c #FFCCFF",
"a.	c #FFFFCC",
"b.	c #FFFFFF",
"c.	c #803030",
"d.	c #90B0A0",
"e.	c #F8D0D8",
"f.	c #D8F8D0",
"g.	c #D0D8F8",
"h.	c #F8D0D8",
"i.	c #D8F8D0",
"j.	c #D0D8F8",
"k.	c #F8D0D8",
"l.	c #D8F8D0",
"m.	c #B0D0F8",
"n.	c #F0B0D0",
"o.	c #80F0B0",
"p.	c #B0D0A0",
"q.	c #A06080",
"r.	c #30F8D0",
"s.	c #FFFF30",
"t.	c #CCFFFF",
"u.	c #FFCCFF",
"v.	c #FFFFCC",
"w.	c #CCFFFF",
"x.	c #FFCCFF",
"y.	c #FFFFCC",
"z.	c #FFFFFF",
"A.	c #30FFFF",
"B.	c #608030",
"C.	c #A06080",
"D.	c #D8F8D0",
"E.	c #D0D8F8",
"F.	c #F8D0D8",
"G.	c #D8F8D0",
"H.	c #D0D8F8",
"I.	c #F8D0D8",
"J.	c #80A060",
"K.	c #6080A0",
"L.	c #F0B0D0",
"M.	c #B0D090",
"N.	c #6080D0",
"O.	c #D090B0",
"P.	c #30F0B0",
"Q.	c #FFFF30",
"R.	c #CCFFFF",
"S.	c #FFCCFF",
"T.	c #FFFFCC",
"U.	c #CCFFFF",
"V.	c #FFCCFF",
"W.	c #FFFFCC",
"X.	c #FFFFFF",
"Y.	c #D83030",
"Z.	c #D0D8F8",
"`.	c #F0B0D0",
" +	c #D0A060",
".+	c #D0D8F0",
"++	c #F8D0D8",
"@+	c #D8F8D0",
"#+	c #D0D8F8",
"$+	c #A06080",
"%+	c #D8F0B0",
"&+	c #D0D8F8",
"*+	c #A06080",
"=+	c #B0D090",
"-+	c #3030D0",
";+	c #D090B0",
">+	c #30F0B0",
",+	c #FFFF30",
"'+	c #CCFFFF",
")+	c #FFCCFF",
"!+	c #FFFFCC",
"~+	c #CCFFFF",
"{+	c #FFCCFF",
"]+	c #FFFFCC",
"^+	c #FFFFFF",
"/+	c #B03030",
"(+	c #90B0D0",
"_+	c #F0B0D0",
":+	c #80F0B0",
"<+	c #B0D0A0",
"[+	c #F8D0D8",
"}+	c #D0F8D0",
"|+	c #6080F0",
"1+	c #F0B0D0",
"2+	c #B0D090",
"3+	c #90B0D0",
"4+	c #F8D0D8",
"5+	c #30A060",
"6+	c #B0D030",
"7+	c #F0B0D0",
"8+	c #30D090",
"9+	c #FFFF30",
"0+	c #CCFFFF",
"a+	c #FFCCFF",
"b+	c #FFFFCC",
"c+	c #CCFFFF",
"d+	c #FFCCFF",
"e+	c #FFFFCC",
"f+	c #FFFFFF",
"g+	c #612608",
"h+	c #1FFB44",
"i+	c #001040",
"j+	c #D0F0B0",
"k+	c #6080F0",
"l+	c #F0B0D0",
"m+	c #B0F0B0",
"n+	c #6080D0",
"o+	c #D090B0",
"p+	c #B0D090",
"q+	c #90B0D0",
"r+	c #F0B0D0",
"s+	c #B0A060",
"t+	c #90B0D0",
"u+	c #D090B0",
"v+	c #FF3030",
"w+	c #FFFFFF",
"x+	c #CCFFFF",
"y+	c #FFCCFF",
"z+	c #FFFFCC",
"A+	c #CCFFFF",
"B+	c #FFCCFF",
"C+	c #FFFFCC",
"D+	c #FFFFFF",
"E+	c #B03030",
"F+	c #90B0D0",
"G+	c #D090B0",
"H+	c #D0D090",
"                                                                                                                                ",
"                                                                                                                                ",
"                                                                                                                                ",
"                                                                                                                                ",
"                                                                                                                                ",
"                                                                                                                                ",
"                                                                                                                                ",
"                                                                                                                                ",
"                                                                                                                                ",
"                                                                                                                                ",
"                                                                                                                                ",
"                                                                                                                                ",
"                                                                                                                                ",
"                                                                                                                                ",
"                                                    + + + + + + + + + + + +                                                     ",
"                                                    + + + + + + + + + + + +                                                     ",
"                                            + + + + @ @ @ @ @ @ @ @ @ @ @ @ + + + +                                             ",
"                                            + + + + @ @ @ @ @ @ @ @ @ @ @ @ + + + +                                             ",
"                                        + + @ @ @ @ @ @ @ @ @ @ @ @ @ @ @ @ @ @ # # + +                                         ",
"                                        + + @ @ @ @ @ @ @ @ @ @ @ @ @ @ @ @ @ @ # # + +                                         ",
"                                    + + @ @ $ $ $ $ @ @ @ @ @ @ @ @ @ @ @ @ @ @ @ @ # # + +                                     ",
"                                    + + @ @ $ $ $ $ @ @ @ @ @ @ @ @ @ @ @ @ @ @ @ @ # # + +                                     ",
"                                + + @ @ $ $ % % % % $ $ @ @ @ @ @ @ @ @ @ @ @ @ @ @ # # # # + +                                 ",
"                                + + @ @ $ $ % % % % $ $ @ @ @ @ @ @ @ @ @ @ @ @ @ @ # # # # + +                                 ",
"                                + + @ @ $ $ % % % % $ $ @ @ @ @ @ @ @ @ @ @ @ @ @ @ # # # # + +                                 ",
"                                + + @ @ $ $ % % % % $ $ @ @ @ @ @ @ @ @ @ @ @ @ @ @ # # # # + +                                 ",
"                            + + @ @ @ @ @ @ $ $ $ $ @ @ @ @ @ @ @ @ @ @ @ @ @ @ @ @ # # # # # # + +                             ",
"                            + + @ @ @ @ @ @ $ $ $ $ @ @ @ @ @ @ @ @ @ @ @ @ @ @ @ @ # # # # # # + +                             ",
"                            + + @ @ @ @ @ @ @ @ @ @ @ @ @ @ @ @ @ @ @ @ @ @ @ @ # # # # # # # # + +                             ",
"                            + + @ @ @ @ @ @ @ @ @ @ @ @ @ @ @ @ @ @ @ @ @ @ @ @ # # # # # # # # + +                             ",
"                            + + @ @ @ @ @ @ @ @ @ @ @ @ @ @ @ @ @ @ @ @ @ @ @ @ # # # # # # # # + +                             ",
"                            + + @ @ @ @ @ @ @ @ @ @ @ @ @ @ @ @ @ @ @ @ @ @ @ @ # # # # # # # # + +                             ",
"                            + + & & @ @ @ @ @ @ @ @ @ @ @ @ @ @ @ @ @ @ @ @ # # # # # # # # & & + +                             ",
"                            + + & & @ @ @ @ @ @ @ @ @ @ @ @ @ @ @ @ @ @ @ @ # # # # # # # # & & + +                             ",
"                            + + * * & & @ @ @ @ * * * * * * @ @ @ @ # # # # # # # # # # & & * * + +                             ",
"                            + + * * & & @ @ @ @ * * * * * * @ @ @ @ # # # # # # # # # # & & * * + +                             ",
"                            + + * * * * * * * * = = % % = = * * # # # # # # & & * * * * * * * * + +                             ",
"                            + + * * * * * * * * = = % % = = * * # # # # # # & & * * * * * * * * + +                             ",
"                                + + - - * * * * % % % % % % * * * * * * * * * * * * * * - - + +                                 ",
"                                + + - - * * * * % % % % % % * * * * * * * * * * * * * * - - + +                                 ",
"                                + + ; ; % % - - = = % % = = * * * * * * * * * * - - ; ; = = + +                                 ",
"                                + + ; ; % % - - = = % % = = * * * * * * * * * * - - ; ; = = + +                                 ",
"                                    + + ; ; % % - - - - - - ; ; ; ; ; ; ; ; ; ; ; ; = = + +                                     ",
"                                    + + ; ; % % - - - - - - ; ; ; ; ; ; ; ; ; ; ; ; = = + +                                     ",
"                                        + + = = ; ; ; ; ; ; ; ; ; ; ; ; ; ; = = = = + +                                         ",
"                                        + + = = ; ; ; ; ; ; ; ; ; ; ; ; ; ; = = = = + +                                         ",
"                                            + + + + = = = = = = = = = = = = + + + +                                             ",
"                                            + + + + = = = = = = = = = = = = + + + +                                             ",
"                                                    + + + + + + + + + + + +                                                     ",
"                                                    + + + + + + + + + + + +                                                     ",
"                                                                                                                                ",
"                                                                                                                                ",
"                                                                                                                                ",
"                                                                                                                                ",
"                                                                                                                                ",
"                                                                                                                                ",
"                                                                                                                                ",
"                                                                                                                                ",
"                                                                                                                                ",
"                                                                                                                                ",
"                                                                                                                                ",
"                                                                                                                                ",
"                                                                                                                                ",
"                                                                                                                                "};
