/* XPM */
static char * psycho1_xpm[] = {
"64 64 12 1",
" 	c None",
".	c #101010",
"+	c #905810",
"@	c #E0A030",
"#	c #F8D8A0",
"$	c #F8D048",
"%	c #F8F8F8",
"&	c #D8D8D8",
"*	c #F8E8B8",
"=	c #F0D888",
"-	c #D8B050",
";	c #805801",
"                                                                ",
"                                                                ",
"                                                                ",
"                                                                ",
"                                                                ",
"                                                                ",
"                                                                ",
"                                                                ",
"                                                                ",
"                                  ..                            ",
"                                 .+.                            ",
"                                 ...                            ",
"                           ..   .+. ..                          ",
"                           .+.  .+ ...                          ",
"                            ... .....                           ",
"                              .....                             ",
"                             +++..                              ",
"                          ++@##$$$@+.                           ",
"                        +@######$$$$$+.                         ",
"                       @########$$$$$$$.                        ",
"                      @########$@@@@$$$$.                       ",
"                     +@@@#####$@%%%&@$$$+++                     ",
"                     @%%%@##$$@%%.%%&@$$$.#.                    ",
"                    @%%.%&@$$$@%%%%%&@$.+#$$.                   ",
"                    @%%%%&@$$$$@%%%&@$.###$$+                   ",
"                    @@%%&$+++$$$@@@@$$.####$$.                  ",
"                  @+.$@@@+**=+@$$$$$$$$+###$$+                  ",
"                  @#@.$++***==-++@$$$$@.###$$@+                 ",
"                 @##$#;*+***+=----+$$@@.###$$@.                 ",
"                +##$@@.*-**-===---.@@@@+##$$$@.                 ",
"                @####.*******==--.@@@+.$$$$$$@.                 ",
"               @####.;*******=---.+++@+$$$$$@@+                 ",
"               +$##$.*******==--;@@@@@+@$$$@@+                  ",
"               +$$$.********=---.@@@@@@@@@@@@.                  ",
"               +$$+********==--;@@@@@@@@@@@@+                   ",
"                +$.=*****===---.@@@@@@@@@@@@.                   ",
"                .$@.======----.@@@@@@@@@@+..   ++               ",
"                 .@@..-----+..$$@@@@@@@@@@@. ++$$.              ",
"                  .@@+.....$$$$$$$@@@@@@@@@++$$$$.              ",
"                   .++$$$$$$$$$$$$@@@@@@@@@@.@@$+               ",
"                    .@$$$$$$$$$$$$$@@@@@@@@@.@@@.               ",
"                    @$$#####$$$$$$$@@@@@@@@@.@@+                ",
"                    @$#######$$$$$$@@@@.@@@..@@.                ",
"                    +$#######$$$$$$@@@;=.@.=;@+                 ",
"                     @#######$$$$$$@@@;=..=-;..                 ",
"                     +$#####$$$$$$@@@;==----;--.                ",
"                      +$$$$$$$$$$@@@@;==-------.                ",
"                       .$$$$$$$@@@@@;==-------.                 ",
"                        .;@@@@@@@@@@;==------.                  ",
"                       ;;-..;@@@@@@@;=------.                   ",
"                     ;;==----;......;------.                    ",
"                    ;=-====----.     ;---..                     ",
"                     .;=====-;.       ...                       ",
"                      ...;-..                                   ",
"                         ..                                     ",
"                                                                ",
"                                                                ",
"                                                                ",
"                                                                ",
"                                                                ",
"                                                                ",
"                                                                ",
"                                                                ",
"                                                                "};
