/* XPM */
static char * salam_xpm[] = {
"64 64 15 1",
" 	c None",
".	c #903001",
"+	c #101010",
"@	c #D85020",
"#	c #F89040",
"$	c #F8C060",
"%	c #F8F8F8",
"&	c #184830",
"*	c #D04008",
"=	c #40A078",
"-	c #90C8D8",
";	c #F09008",
">	c #F8D068",
",	c #F8E098",
"'	c #E0A858",
"                                                                ",
"                                                                ",
"                                                                ",
"                                                                ",
"                                                                ",
"                                                                ",
"                                                                ",
"                                                                ",
"                                                                ",
"                                                                ",
"                                                                ",
"                                                                ",
"                                   ...+                         ",
"                                 .@####.+                       ",
"                                .#$$#####+                      ",
"                               @#$$$######+                     ",
"                               .$$$##@####.                     ",
"                              .#$$##@@..##@+                    ",
"                              .#####@.%&.#@+                    ",
"                   *   ***    %######.%&.#@.                    ",
"                  *  ***      &######.&&.#@@+                   ",
"                 ** ***       =$#####.==.#@@+                   ",
"                 ******       .$#####@-@#@@@+                   ",
"                **;****      .$$########@@@@+                   ",
"               **;;*;* ;     +$#######@@@.@@.                   ",
"              ***;>;>;**     .#@#.##@@...@@.                    ",
"              **;;>>>;;*      .##@@@..%@@@@+                    ",
"               *;>>;>>>*       ++...@@@@.@@+                    ",
"              **>>;*;>>*         .@@@@..@@@@+                   ",
"              *;>>;*;>>*          .+..@@@@@@.                   ",
"               ;>;***;;            .>>>#.#@@@+                  ",
"                *;***;*           @>>>>>.##@@.                  ",
"                 *****          @..>,,..$###@@+                 ",
"                  .$.          @$@.,,.$$##@.@@.                 ",
"                  .$.          .#..,,####@.@@@@+                ",
"                  .$$.         .##.,,.+#.+@@@@@.                ",
"                  @$$.          ++>,,,++''@@@@@@+               ",
"                   @$$.          #,,,,,>>'@@@@@@+               ",
"                   .$$$.         #,,,,,>>'@@@@@@.               ",
"                    @$##.+       #,,,,,>>'.@@@@@@+              ",
"                    .#####.+    .#,,,,>>>.###@@@@.              ",
"                     .######.++.#@>>>>>>@#$$##@@@+              ",
"                      .@####@@.@#@'>>>>'.#$$##@@@+              ",
"                       .@@@@@@+@$#.'''''+#####@@@+              ",
"                        .@@@@@+@$##.''''+@###@@@@.              ",
"                         +.''@@.####..''.@@@@@@@@@.             ",
"                           +.'''.##@@@....@@@@@.@@.             ",
"                             +.'.+.@@@++''.++..@@@+             ",
"                               .@###@@@+++  .#@@@@+             ",
"                              @%.%@%@@+    .###@@.              ",
"                               .+++++.    .%.%.%.+              ",
"                                           .+++++               ",
"                                                                ",
"                                                                ",
"                                                                ",
"                                                                ",
"                                                                ",
"                                                                ",
"                                                                ",
"                                                                ",
"                                                                ",
"                                                                ",
"                                                                ",
"                                                                "};
