/* XPM */
static char * tileset_ground2_xpm[] = {
"32 32 25 1",
" 	c #000000",
".	c #010005",
"+	c #03000E",
"@	c #040012",
"#	c #010004",
"$	c #050015",
"%	c #0F0028",
"&	c #100028",
"*	c #100029",
"=	c #0E0026",
"-	c #0D0024",
";	c #03000D",
">	c #060017",
",	c #0D0023",
"'	c #0F0027",
")	c #09001D",
"!	c #09001C",
"~	c #0E0025",
"{	c #040011",
"]	c #050012",
"^	c #050014",
"/	c #03000C",
"(	c #0D0025",
"_	c #0A001D",
":	c #0C0023",
"                                ",
"       .+@@+#  .+@@+.           ",
"       $%&*=+  +%&**+           ",
"       -*****;#>****>           ",
"       ,*****'+@****>           ",
"   .++.=*****&&*&***>           ",
"   +)!+=************>           ",
"   +!!+;~&&*&******=;           ",
"   .++..+{@{{@]]>@{+.           ",
"{{{{{@{+..+{@{{@{;##;@@+.       ",
"'&&**&%!;;%******';;%*''+       ",
"********@{'*******&&****{       ",
"********@@'******%%*****@       ",
"*****%*'+@'************%@       ",
"******%;#{=************&{       ",
"%*&&*%+  +=*%***********+       ",
"{{{@{+#  #$************'#       ",
"           ^%~~~~~~%%%~/        ",
"           #+{@{{{{@{+#         ",
" .++..+{@{{{{{{{{@{$..+{@{{@>+. ",
" +&*$~=(&''''*''%%'~;;~''''&%'+ ",
" +**+=&************%{{'*******> ",
" .++.%=*************@@'*******@ ",
"     ''************%@@%****%'%+ ",
"     -**__'********%{{'****%'+# ",
"     )'%++='****%%&~++==''=:+   ",
"     .+;.#;{@{{{{@{+..+{@@{+#   ",
"                                ",
"                                ",
"                                ",
"                                ",
"                                "};
