/* XPM */
static char * tileset_wall_xpm[] = {
"32 32 47 1",
" 	c #000000",
".	c #351C22",
"+	c #331C22",
"@	c #341C23",
"#	c #341C22",
"$	c #110029",
"%	c #110129",
"&	c #100029",
"*	c #120129",
"=	c #100129",
"-	c #010001",
";	c #120227",
">	c #341B23",
",	c #0F0029",
"'	c #0E0029",
")	c #100028",
"!	c #0F0028",
"~	c #000001",
"{	c #110128",
"]	c #000002",
"^	c #010003",
"/	c #010004",
"(	c #010002",
"_	c #030101",
":	c #020101",
"<	c #010000",
"[	c #361D23",
"}	c #010005",
"|	c #050111",
"1	c #040011",
"2	c #351C23",
"3	c #130129",
"4	c #371D23",
"5	c #0E0027",
"6	c #040012",
"7	c #010006",
"8	c #0F0027",
"9	c #010008",
"0	c #02000B",
"a	c #02000D",
"b	c #040102",
"c	c #341C21",
"d	c #341B21",
"e	c #120609",
"f	c #331A21",
"g	c #0C0022",
"h	c #0A001E",
"                                ",
"................  +.............",
"................  ..............",
"...@............  ..#...........",
"....$%&&$%$&%*%= -;&&&*&&&&&&&&&",
"...>$&,&&&&&&&&&  &&&&&&&&&&&&&&",
"....&&',,,,,,,,&  )&,,,,,,,,,,,&",
"....$&,&&&&&&&&&  !&&&&&&&&&&&&&",
"....%&,&&&&&&&&& ~&&&&&&&&&&&&&&",
"....$&,&&&&&&&&& ~)&&&&&&&&&&&&&",
"....$&,&&&&&&&&& ~)&&&&&&&&&&&&&",
"....{)&!!!!!!!!&~]!)!)))))&)&&&&",
"^    ] ~   /(~    ~~~~     ~~~~]",
"_             :  <             -",
"[[[[[[[[[[ }..............|1....",
"[[[[[[[[[2] .2............11....",
"[[[[3&%%%&] &&&*&$%&&&&&&&|1%&&&",
"[[[[&&,&&!^~&&&&&&&&&&&&&&11&&&&",
"[[[[&,',,!//!&,,,,,,,,,,&&11!&,,",
"[4[[%&,&&5]]!&&&&&&&&&&&&&66&&&&",
"[[[[&&,&&!77&&&&&&&&&&&&&&11&&&&",
"[[[2{&!&!8798&&&&&&&&!&)&&0a&&))",
"< <  ~]     ~~   ((]^//} ]     ~",
"       <-b::::   <<-:- <:bb<<  <",
"............c.  d..c........: ..",
"..............e ............  #.",
"..............  ............  f>",
".....&,&&&&&&g~~g&&&&&&&&&&h ~g&",
".....,',,,,,,g( g,,,,,,,,,,g~~g,",
".....&,&&&&&&g~ g&&&&&&&&&&g~^g&",
".....&,&&&&&&g  g&&&&&&&&&&g ~g&",
".....&,&&&&&&g]]g&&&&&&&&&&g7^g&"};
