/* XPM */
static char * tileset x1_xpm[] = {
"32 32 8 1",
" 	c #1A1C2C",
".	c #1A1D2D",
"+	c #1D2031",
"@	c #1D2032",
"#	c #202537",
"$	c #313A54",
"%	c #323B55",
"&	c #333C57",
" .+@@@@@@@@@@@@@@@@@@@@@@@@@@+. ",
".#$%%%%%%%%%%%%%%%%%%%%%%%%%%$#.",
"+$&&&&&&&&&&&&&&&&&&&&&&&&&&&&$+",
"@%&&&&&&&&&&&&&&&&&&&&&&&&&&&&%@",
"@%&&&&&&&&&&&&&&&&&&&&&&&&&&&&%@",
"@%&&&&&&&&&&&&&&&&&&&&&&&&&&&&%@",
"@%&&&&&&&&&&&&&&&&&&&&&&&&&&&&%@",
"@%&&&&&&&&&&&&&&&&&&&&&&&&&&&&%@",
"@%&&&&&&&&&&&&&&&&&&&&&&&&&&&&%@",
"@%&&&&&&&&&&&&&&&&&&&&&&&&&&&&%@",
"@%&&&&&&&&&&&&&&&&&&&&&&&&&&&&%@",
"@%&&&&&&&&&&&&&&&&&&&&&&&&&&&&%@",
"@%&&&&&&&&&&&&&&&&&&&&&&&&&&&&%@",
"@%&&&&&&&&&&&&&&&&&&&&&&&&&&&&%@",
"@%&&&&&&&&&&&&&&&&&&&&&&&&&&&&%@",
"@%&&&&&&&&&&&&&&&&&&&&&&&&&&&&%@",
"@%&&&&&&&&&&&&&&&&&&&&&&&&&&&&%@",
"@%&&&&&&&&&&&&&&&&&&&&&&&&&&&&%@",
"@%&&&&&&&&&&&&&&&&&&&&&&&&&&&&%@",
"@%&&&&&&&&&&&&&&&&&&&&&&&&&&&&%@",
"@%&&&&&&&&&&&&&&&&&&&&&&&&&&&&%@",
"@%&&&&&&&&&&&&&&&&&&&&&&&&&&&&%@",
"@%&&&&&&&&&&&&&&&&&&&&&&&&&&&&%@",
"@%&&&&&&&&&&&&&&&&&&&&&&&&&&&&%@",
"@%&&&&&&&&&&&&&&&&&&&&&&&&&&&&%@",
"@%&&&&&&&&&&&&&&&&&&&&&&&&&&&&%@",
"@%&&&&&&&&&&&&&&&&&&&&&&&&&&&&%@",
"@%&&&&&&&&&&&&&&&&&&&&&&&&&&&&%@",
"@%&&&&&&&&&&&&&&&&&&&&&&&&&&&&%@",
"+$&&&&&&&&&&&&&&&&&&&&&&&&&&&&$+",
".#$%%%%%%%%%%%%%%%%%%%%%%%%%%$#.",
" .+@@@@@@@@@@@@@@@@@@@@@@@@@@+. "};
