/* XPM */
static char * tree_xpm[] = {
"64 64 7 1",
" 	c None",
".	c #388830",
"+	c #B0F880",
"@	c #80C060",
"#	c #385001",
"$	c #403830",
"%	c #685858",
"                         .....    .....                         ",
"                         .....    .....                         ",
"                       ..+++@@....@@+++..                       ",
"                       ..+++@@....@@+++..                       ",
"                    .......+++@@..+++.......                    ",
"                  ...@@@@..@++@@##++@..@@@@...                  ",
"                  ...@@@@..@++@@##++@..@@@@...                  ",
"              ..+++++....@@@..##++..+@@....+++++..              ",
"              ..+++++....@@@..##++..+@@....+++++..              ",
"                ..+++++....@..++@@..@....+++++..                ",
"                ..+++++....@..++@@..@....+++++..                ",
"              ......+++..@@#..++@@..#@@..+++......              ",
"            ..@@@@.....@@+++@@####@@+++@@.....@@@@..            ",
"            ..@@@@.....@@+++@@####@@+++@@.....@@@@..            ",
"           .@@++++++@..+++++##....##+++++..@++++++@@.           ",
"           .@@++++++@..+++++##....##+++++..@++++++@@.           ",
"           #@@@@++++.++++++@..++++@@.++++++.++++@@@@#           ",
"           #@@@@++++.++++++@..++++@@.++++++.++++@@@@#           ",
"         ##+####@@...@@@@...++++++++.....##...@@####@##         ",
"         ##+####@@...@@@@...++++++++.....##...@@####@##         ",
"       ##@@@@@####@@@......@..++++..@....@@@@@####@@@@@##       ",
"       ##.....##@@+++..@@@@..........@@@@..+++@@##.....##       ",
"       ##.....##@@+++..@@@@..........@@@@..+++@@##.....##       ",
"       ..@@@##@@+++++##++++#..@@@@..#++++##+++++@@##@@@..       ",
"       ..@@@##@@+++++##++++#..@@@@..#++++##+++++@@##@@@..       ",
"     ..@@@@@####++++#++++++#@@++++@@#++++++#++++####@@@@@..     ",
"     ..@@@@@####++++#++++++#@@++++@@#++++++#++++####@@@@@..     ",
"     ##@@@@#....#####++++##++++++++++##++++#####....#@@@@##     ",
"       ####@@@.......####..#++++++++#..####.......@@@####       ",
"       ####@@@.......####..#++++++++#..####.......@@@####       ",
"     ##@@##@@@..............##++++##..............@@@##@@##     ",
"     ##@@##@@@..............##++++##..............@@@##@@##     ",
"    #@@@@##@..@@@@@@#..@@.....####.....@@..#@@@@@@..@##@@@@#    ",
"    #@@@@##@..@@@@@@#..@@.....####.....@@..#@@@@@@..@##@@@@#    ",
"    #@@..###@@@@@@##@@@@@@@.##....##.@@@@@@@##@@@@@@###..@@#    ",
"    #@@..###@@@@@@##@@@@@@@.##....##.@@@@@@@##@@@@@@###..@@#    ",
"     ####@@.########@@@@@..#........#..@@@@@########.@@####     ",
"       ##@@.......###@@@@..#..@@@@..#..@@@@###.......@@##       ",
"       ##@@.......###@@@@..#..@@@@..#..@@@@###.......@@##       ",
"       ##@@@....###########.@@@@@@@@.###########....@@@##       ",
"       ##@@@....###########.@@@@@@@@.###########....@@@##       ",
"         ###..####.....##..###@@@@###..##.....####..###         ",
"         ###..####.....##..###@@@@###..##.....####..###         ",
"           ###.......##....#..####..#....##.......###           ",
"            ##@@....#....###........###....#....@@##            ",
"            ##@@....#....###........###....#....@@##            ",
"            ####..##.....##..........##.....##..####            ",
"            ####..##.....##..........##.....##..####            ",
"            ..#######....##..........##....#######..            ",
"            ..#######....##..........##....#######..            ",
"           .###############...####...###############.           ",
"           .###############...####...###############.           ",
"         ..##############$$##########$$##############..         ",
"         ..############$$$$%%%%%%%%%%$$$$############..         ",
"         ..############$$$$%%%%%%%%%%$$$$############..         ",
"         ..##############$$%%%%%%%%%%$$##############..         ",
"         ..##############$$%%%%%%%%%%$$##############..         ",
"           .###############$$$%%%%$$$###############.           ",
"           .###############$$$%%%%$$$###############.           ",
"            ....##############$$$$##############....            ",
"                .......##################.......                ",
"                .......##################.......                ",
"                       ..................                       ",
"                       ..................                       "};
