/* XPM */
static char * tree2_xpm[] = {
"64 64 9 1",
" 	c #70C0A0",
".	c #A0D0C0",
"+	c #388830",
"@	c #B0F880",
"#	c #80C060",
"$	c #40B080",
"%	c #385000",
"&	c #403830",
"*	c #685858",
"    ...                  +++++  ..+++++                     ....",
"    ...                  +++++  ..+++++                     ....",
"    ...                ++@@@##++++##@@@++              $$   ....",
"    ...                ++@@@##++++##@@@++              $$   ....",
"         $$ ..    $$+++++++@@@##++@@@+++++++  $$                ",
"                  +++####++#@@##%%@@#++####+++                  ",
"                  +++####++#@@##%%@@#++####+++                  ",
"  $$     ..   ++@@@@@++++###++%%@@++@##++++@@@@@++         $    ",
"  $$     ..   ++@@@@@++++###++%%@@++@##++++@@@@@++         $    ",
"....            ++@@@@@++++#++@@##++#++++@@@@@++    $    ...    ",
"....            ++@@@@@++++#++@@##++#++++@@@@@++    $    ...    ",
"....          ++++++@@@++##%++@@##++%##++@@@++++++     $$...    ",
"            ++####+++++##@@@##%%%%##@@@##+++++####++            ",
"            ++####+++++##@@@##%%%%##@@@##+++++####++            ",
"           +##@@@@@@#++@@@@@%%++++%%@@@@@++#@@@@@@##+           ",
"           +##@@@@@@#++@@@@@%%++++%%@@@@@++#@@@@@@##+           ",
"           %####@@@@+@@@@@@#++@@@@##+@@@@@@+@@@@####%           ",
"           %####@@@@+@@@@@@#++@@@@##+@@@@@@+@@@@####%           ",
"    $    %%@%%%%##+++####+++@@@@@@@@+++++%%+++##%%%%#%%..   $$  ",
"    $    %%@%%%%##+++####+++@@@@@@@@+++++%%+++##%%%%#%%..   $$  ",
"       %%#####%%%%###++++++#++@@@@++#++++#####%%%%#####%%       ",
"  $$   %%+++++%%##@@@++####++++++++++####++@@@##%%+++++%%  $    ",
"  $$   %%+++++%%##@@@++####++++++++++####++@@@##%%+++++%%  $    ",
"       ++###%%##@@@@@%%@@@@%++####++%@@@@%%@@@@@##%%###++       ",
"       ++###%%##@@@@@%%@@@@%++####++%@@@@%%@@@@@##%%###++       ",
"     ++#####%%%%@@@@%@@@@@@%##@@@@##%@@@@@@%@@@@%%%%#####++     ",
"     ++#####%%%%@@@@%@@@@@@%##@@@@##%@@@@@@%@@@@%%%%#####++     ",
"     %%####%++++%%%%%@@@@%%@@@@@@@@@@%%@@@@%%%%%++++%####%%     ",
"    ...%%%%###+++++++%%%%++%@@@@@@@@%++%%%%+++++++###%%%%   ....",
"    ...%%%%###+++++++%%%%++%@@@@@@@@%++%%%%+++++++###%%%%   ....",
"    .%%##%%###++++++++++++++%%@@@@%%++++++++++++++###%%##%% ....",
"    .%%##%%###++++++++++++++%%@@@@%%++++++++++++++###%%##%% ....",
"    %####%%#++######%++##+++++%%%%+++++##++%######++#%%####%    ",
"    %####%%#++######%++##+++++%%%%+++++##++%######++#%%####%    ",
"    %##++%%%######%%#######+%%++++%%+#######%%######%%%++##%    ",
"    %##++%%%######%%#######+%%++++%%+#######%%######%%%++##%    ",
"  $$ %%%%##+%%%%%%%%#####++%++++++++%++#####%%%%%%%%+##%%%%$    ",
"....   %%##+++++++%%%####++%++####++%++####%%%+++++++##%%...    ",
"....   %%##+++++++%%%####++%++####++%++####%%%+++++++##%%...    ",
"....   %%###++++%%%%%%%%%%%+########+%%%%%%%%%%%++++###%%...    ",
"....   %%###++++%%%%%%%%%%%+########+%%%%%%%%%%%++++###%%...    ",
"         %%%++%%%%+++++%%++%%%####%%%++%%+++++%%%%++%%%         ",
"         %%%++%%%%+++++%%++%%%####%%%++%%+++++%%%%++%%%         ",
"           %%%+++++++%%++++%++%%%%++%++++%%+++++++%%%           ",
"            %%##++++%++++%%%++++++++%%%++++%++++##%%            ",
"            %%##++++%++++%%%++++++++%%%++++%++++##%%            ",
"    $       %%%%++%%+++++%%++++++++++%%+++++%%++%%%%$  ..   $$  ",
"    $       %%%%++%%+++++%%++++++++++%%+++++%%++%%%%$  ..   $$  ",
"            ++%%%%%%%++++%%++++++++++%%++++%%%%%%%++            ",
"            ++%%%%%%%++++%%++++++++++%%++++%%%%%%%++            ",
"  $$       +%%%%%%%%%%%%%%%+++%%%%+++%%%%%%%%%%%%%%%+      $    ",
"  $$       +%%%%%%%%%%%%%%%+++%%%%+++%%%%%%%%%%%%%%%+      $    ",
"         ++%%%%%%%%%%%%%%&&%%%%%%%%%%&&%%%%%%%%%%%%%%++         ",
"         ++%%%%%%%%%%%%&&&&**********&&&&%%%%%%%%%%%%++         ",
"         ++%%%%%%%%%%%%&&&&**********&&&&%%%%%%%%%%%%++         ",
"         ++%%%%%%%%%%%%%%&&**********&&%%%%%%%%%%%%%%++..       ",
"         ++%%%%%%%%%%%%%%&&**********&&%%%%%%%%%%%%%%++..       ",
"    ...    +%%%%%%%%%%%%%%%&&&****&&&%%%%%%%%%%%%%%%+       ....",
"    ...    +%%%%%%%%%%%%%%%&&&****&&&%%%%%%%%%%%%%%%+       ....",
"    ...     ++++%%%%%%%%%%%%%%&&&&%%%%%%%%%%%%%%++++   $$   ....",
"         $$ ..  +++++++%%%%%%%%%%%%%%%%%%+++++++                ",
"         $$ ..  +++++++%%%%%%%%%%%%%%%%%%+++++++                ",
"                       ++++++++++++++++++                       ",
"                       ++++++++++++++++++                       "};
